<svg width="890" height="257" viewBox="0 0 890 257" fill="none" xmlns="http://www.w3.org/2000/svg">
<path fill-rule="evenodd" clip-rule="evenodd" d="M812 13.5C812 20.4036 804.837 26 796 26C787.163 26 780 20.4036 780 13.5C780 13.3325 780.004 13.1659 780.013 13H768V11H780.32C781.803 5.2944 788.259 1 796 1C803.741 1 810.197 5.2944 811.68 11H824V13H811.987C811.996 13.1659 812 13.3325 812 13.5ZM685 11H713V13H693.685C698.087 15.227 701 19.0977 701 23.5C701 30.4036 693.837 36 685 36C676.163 36 669 30.4036 669 23.5C669 19.0977 671.913 15.227 676.315 13H657V11H685ZM685 36H713V38H657V36H685ZM450 34H424V36H441.315C436.913 38.227 434 42.0977 434 46.5C434 53.4036 441.163 59 450 59H423V61H479V59H450C458.837 59 466 53.4036 466 46.5C466 42.0977 463.087 38.227 458.685 36H480V34H450ZM189 59H245V61H218H189V59ZM38.3945 138.5H888H889V137.5V110V86V85H888H224.281C229.995 83.0926 234 78.6616 234 73.5C234 66.5964 226.837 61 218 61C209.163 61 202 66.5964 202 73.5C202 78.6616 206.005 83.0926 211.719 85H117.987C117.652 78.3282 110.622 73 102 73C93.3778 73 86.3485 78.3282 86.0126 85H2H1V86V110V137.5V138.5H2H19.5117C19.4118 139.517 19.3683 140.534 19.3887 141.539C19.4355 144.573 20.4985 150.728 22.0493 158.457C21.2363 159.215 20.4124 159.975 19.5851 160.738C19.4904 160.825 19.3958 160.913 19.301 161H2H1V162V186V187.348C0.941523 187.965 0.911398 188.59 0.911398 189.222C0.900163 190.033 0.929364 190.86 1 191.697V213.5V214.5H2H22.8236C23.9988 214.628 25.2252 214.691 26.5038 214.681C27.7055 214.674 28.8551 214.611 29.9526 214.5H34.1458C35.7251 222.358 36.7655 228.54 36.759 231.44C36.8173 243.198 19.6719 244.362 18.85 237.603C22.4636 237.491 25.3385 234.905 25.3385 231.707C25.3385 228.44 22.3363 225.776 18.6108 225.776C16.5625 225.776 14.7371 226.586 13.4991 227.853C13.486 227.865 13.472 227.877 13.4579 227.889C13.4411 227.903 13.4242 227.917 13.4091 227.931C13.1298 228.198 12.8944 228.517 12.6619 228.879C11.8984 230.043 11.4029 231.716 11.3761 234.103C11.3761 243.948 39.0016 250.285 39.0016 230.871C39.0425 228.388 37.9179 222.274 36.2468 214.5H888H889V213.5V186V162V161H888H32.1246C35.8906 155.795 38.4928 149.086 38.4036 139.465C38.4043 139.141 38.4012 138.819 38.3945 138.5ZM38.3042 136.5H887V111H3V136.5H19.7799C21.1922 128.157 26.127 120.425 30.4513 120.526C34.1658 120.636 37.6758 127.48 38.3042 136.5ZM25.0754 136.5C26.9782 132.818 29.5315 130.815 31.6769 130.628C33.987 130.428 35.8293 132.324 35.8906 136.5H25.0754ZM24.1754 138.5H35.824C35.1416 145.197 29.7489 151.165 23.4251 157.164C22.7669 153.589 22.3354 150.692 22.2885 148.974C22.3588 144.794 23.088 141.289 24.1754 138.5ZM17.1412 163H3V180.16C5.89723 173.876 11.4276 168.326 17.1412 163ZM3 199.839V212.5H15.1872C9.1732 209.849 5.19527 205.077 3 199.839ZM21.9474 212.5C14.8793 211.072 5.90455 206.187 5.90455 194.125C5.90455 191.44 6.34854 189.097 7.13279 187H18.47C13.5231 193.188 14.1353 202.163 26.2053 206.948C15.8315 198.991 20.9376 189.571 28.4173 187.929C30.2982 196.391 32.1351 204.741 33.62 211.957C32.9518 212.168 32.2467 212.35 31.5025 212.5H21.9474ZM38.0313 212.5H887V187H45.5704C51.0794 194.846 49.5904 207.467 38.0313 212.5ZM43.9086 185H887V163H30.5639C29.0316 164.828 27.3617 166.467 25.637 167.993C26.5077 171.989 27.5046 176.337 28.5378 180.817C29.8419 180.519 31.1975 180.372 32.6039 180.359C37.3388 180.391 41.1751 182.212 43.9086 185ZM20.373 185C22.1894 183.384 24.4335 182.082 26.9525 181.275C26.0369 177.145 25.1309 173.044 24.2919 169.152C22.8352 170.38 21.3554 171.545 19.9004 172.69C15.0961 176.471 10.5614 180.039 8.01712 185H20.373ZM102 98C93.8132 98 87.0625 93.1963 86.114 87H3V109H887V87H117.886C116.937 93.1963 110.187 98 102 98ZM445.588 243.088C445.804 243.406 445.972 243.773 446.091 244.188H449.841C449.722 243.324 449.452 242.534 449.031 241.818C448.611 241.097 448.068 240.474 447.403 239.952C446.744 239.429 445.989 239.026 445.136 238.741C444.284 238.452 443.364 238.307 442.375 238.307C441.222 238.307 440.151 238.509 439.162 238.912C438.173 239.315 437.307 239.903 436.562 240.676C435.818 241.449 435.239 242.392 434.824 243.506C434.415 244.614 434.21 245.875 434.21 247.29C434.21 249.131 434.554 250.722 435.241 252.062C435.935 253.398 436.901 254.429 438.139 255.156C439.378 255.878 440.815 256.239 442.452 256.239C443.918 256.239 445.219 255.943 446.355 255.352C447.491 254.756 448.384 253.909 449.031 252.812C449.679 251.71 450.003 250.392 450.003 248.858V246.659H442.699V249.438H446.448C446.433 250.135 446.274 250.743 445.972 251.261C445.659 251.807 445.205 252.23 444.608 252.531C444.017 252.827 443.304 252.974 442.469 252.974C441.548 252.974 440.75 252.753 440.074 252.31C439.398 251.861 438.875 251.21 438.506 250.358C438.136 249.506 437.952 248.472 437.952 247.256C437.952 246.04 438.139 245.011 438.514 244.17C438.889 243.324 439.412 242.679 440.082 242.236C440.759 241.793 441.543 241.571 442.435 241.571C442.912 241.571 443.347 241.631 443.739 241.75C444.136 241.869 444.489 242.043 444.795 242.27C445.108 242.491 445.372 242.764 445.588 243.088ZM460.599 241.682L453.363 256H457.173L464.417 241.605V238.545H452.17V241.562H460.599V241.682ZM93.7046 256H87.5171V238.545H93.7557C95.5114 238.545 97.0227 238.895 98.2898 239.594C99.5568 240.287 100.531 241.284 101.213 242.585C101.901 243.886 102.244 245.443 102.244 247.256C102.244 249.074 101.901 250.636 101.213 251.943C100.531 253.25 99.5511 254.253 98.2727 254.952C97 255.651 95.4773 256 93.7046 256ZM91.2074 252.838H93.5511C94.6421 252.838 95.5597 252.645 96.304 252.259C97.054 251.866 97.6165 251.261 97.9915 250.443C98.3722 249.619 98.5625 248.557 98.5625 247.256C98.5625 245.966 98.3722 244.912 97.9915 244.094C97.6165 243.276 97.0568 242.673 96.3125 242.287C95.5682 241.901 94.6506 241.707 93.5597 241.707H91.2074V252.838ZM105.566 256L112.802 241.682V241.562H104.373V238.545H116.62V241.605L109.376 256H105.566ZM320.517 256V238.545H332.074V241.588H324.207V245.747H331.307V248.79H324.207V256H320.517ZM335.144 256L342.38 241.682V241.562H333.951V238.545H346.198V241.605L338.954 256H335.144ZM553.526 256H549.571L555.597 238.545H560.352L566.369 256H562.415L561.122 252.02H554.82L553.526 256ZM558.043 242.534L560.187 249.139H555.758L557.906 242.534H558.043ZM569.058 256L576.294 241.682V241.562H567.865V238.545H580.112V241.605L572.868 256H569.058ZM204.517 238.545V256H216.312V252.957H208.207V248.79H215.673V245.747H208.207V241.588H216.278V238.545H204.517ZM227.036 241.682L219.8 256H223.61L230.854 241.605V238.545H218.607V241.562H227.036V241.682ZM670.517 256V238.545H677.506C678.79 238.545 679.861 238.736 680.719 239.116C681.577 239.497 682.222 240.026 682.653 240.702C683.085 241.372 683.301 242.145 683.301 243.02C683.301 243.702 683.165 244.301 682.892 244.818C682.619 245.33 682.244 245.75 681.767 246.08C681.295 246.403 680.756 246.634 680.148 246.77V246.94C680.812 246.969 681.435 247.156 682.014 247.503C682.599 247.849 683.074 248.335 683.438 248.96C683.801 249.58 683.983 250.318 683.983 251.176C683.983 252.102 683.753 252.929 683.293 253.656C682.838 254.378 682.165 254.949 681.273 255.369C680.381 255.79 679.281 256 677.974 256H670.517ZM674.207 252.983H677.216C678.244 252.983 678.994 252.787 679.466 252.395C679.938 251.997 680.173 251.469 680.173 250.81C680.173 250.327 680.057 249.901 679.824 249.531C679.591 249.162 679.259 248.872 678.827 248.662C678.401 248.452 677.892 248.347 677.301 248.347H674.207V252.983ZM674.207 245.849H676.943C677.449 245.849 677.898 245.761 678.29 245.585C678.688 245.403 679 245.148 679.227 244.818C679.46 244.489 679.577 244.094 679.577 243.634C679.577 243.003 679.352 242.494 678.903 242.108C678.46 241.722 677.83 241.528 677.011 241.528H674.207V245.849ZM686.972 256L694.208 241.682V241.562H685.779V238.545H698.026V241.605L690.782 256H686.972ZM792.185 244.656H795.918C795.798 243.645 795.526 242.747 795.099 241.963C794.679 241.179 794.134 240.517 793.463 239.977C792.793 239.432 792.023 239.017 791.153 238.733C790.29 238.449 789.352 238.307 788.341 238.307C786.807 238.307 785.426 238.659 784.199 239.364C782.972 240.062 782 241.08 781.284 242.415C780.568 243.75 780.21 245.369 780.21 247.273C780.21 249.17 780.562 250.787 781.267 252.122C781.977 253.457 782.943 254.477 784.165 255.182C785.392 255.886 786.784 256.239 788.341 256.239C789.46 256.239 790.463 256.071 791.349 255.736C792.241 255.395 793.009 254.935 793.651 254.355C794.298 253.77 794.812 253.108 795.193 252.369C795.58 251.625 795.821 250.852 795.918 250.051L792.185 250.034C792.099 250.5 791.946 250.915 791.724 251.278C791.509 251.642 791.236 251.952 790.906 252.207C790.577 252.457 790.199 252.648 789.773 252.778C789.352 252.909 788.895 252.974 788.401 252.974C787.52 252.974 786.744 252.759 786.074 252.327C785.403 251.895 784.881 251.256 784.506 250.409C784.136 249.562 783.952 248.517 783.952 247.273C783.952 246.062 784.136 245.034 784.506 244.188C784.875 243.335 785.395 242.688 786.065 242.244C786.736 241.795 787.523 241.571 788.426 241.571C788.926 241.571 789.389 241.642 789.815 241.784C790.247 241.926 790.628 242.131 790.957 242.398C791.287 242.665 791.557 242.989 791.767 243.369C791.977 243.744 792.116 244.173 792.185 244.656ZM801.47 255.599C802.493 256.026 803.661 256.239 804.973 256.239C806.286 256.239 807.45 256.026 808.467 255.599C809.49 255.168 810.291 254.58 810.871 253.835C811.45 253.091 811.743 252.247 811.749 251.304C811.743 250.577 811.57 249.909 811.229 249.301C810.893 248.688 810.439 248.179 809.865 247.776C809.297 247.366 808.663 247.105 807.964 246.991V246.872C808.879 246.685 809.629 246.233 810.214 245.517C810.8 244.801 811.095 243.963 811.101 243.003C811.095 242.105 810.828 241.304 810.3 240.599C809.771 239.889 809.044 239.33 808.118 238.92C807.197 238.511 806.149 238.307 804.973 238.307C803.797 238.307 802.746 238.511 801.82 238.92C800.899 239.324 800.175 239.881 799.646 240.591C799.118 241.295 798.854 242.099 798.854 243.003C798.854 243.957 799.143 244.795 799.723 245.517C800.303 246.233 801.058 246.685 801.99 246.872V246.991C801.28 247.105 800.638 247.366 800.064 247.776C799.49 248.179 799.036 248.688 798.7 249.301C798.371 249.909 798.206 250.577 798.206 251.304C798.206 252.247 798.496 253.091 799.075 253.835C799.655 254.58 800.453 255.168 801.47 255.599ZM806.507 253.213C806.07 253.423 805.558 253.528 804.973 253.528C804.393 253.528 803.882 253.423 803.439 253.213C802.996 252.997 802.652 252.702 802.408 252.327C802.163 251.946 802.041 251.509 802.041 251.014C802.041 250.509 802.166 250.062 802.416 249.676C802.672 249.284 803.021 248.977 803.464 248.756C803.908 248.528 804.411 248.415 804.973 248.415C805.541 248.415 806.044 248.528 806.482 248.756C806.919 248.977 807.266 249.284 807.521 249.676C807.777 250.062 807.905 250.509 807.905 251.014C807.905 251.509 807.78 251.946 807.53 252.327C807.286 252.702 806.945 252.997 806.507 253.213ZM806.277 245.432C805.896 245.631 805.462 245.73 804.973 245.73C804.484 245.73 804.05 245.631 803.669 245.432C803.288 245.233 802.99 244.957 802.774 244.605C802.558 244.253 802.45 243.847 802.45 243.386C802.45 242.932 802.555 242.534 802.766 242.193C802.982 241.847 803.28 241.577 803.661 241.384C804.041 241.185 804.479 241.085 804.973 241.085C805.473 241.085 805.911 241.185 806.286 241.384C806.661 241.577 806.956 241.847 807.172 242.193C807.388 242.534 807.496 242.932 807.496 243.386C807.496 243.847 807.388 244.253 807.172 244.605C806.956 244.957 806.658 245.233 806.277 245.432ZM362 59H349.886C348.937 52.8037 342.187 48 334 48C325.813 48 319.063 52.8037 318.114 59H306V61H318.013C318.349 67.6718 325.378 73 334 73C342.622 73 349.651 67.6718 349.987 61H362V59ZM596 59H540V61H596V59ZM657 59H713V61H657V59ZM538 36H550.32C551.803 30.2944 558.259 26 566 26C573.741 26 580.197 30.2944 581.68 36H594V38H581.987C581.996 38.1659 582 38.3325 582 38.5C582 45.4036 574.837 51 566 51C557.163 51 550 45.4036 550 38.5C550 38.3325 550.004 38.1659 550.013 38H538V36ZM766 36H822V38H766V36ZM822 59H766V61H822V59ZM31.0483 187.659C30.746 187.65 30.4216 187.643 30.1222 187.659C30.2645 188.271 30.4068 188.883 30.5491 189.495C32.3144 197.083 34.0681 204.621 35.5334 211.259C48.2598 205.543 43.546 187.659 31.0483 187.659Z" fill="white"/>
<path d="M780.013 13L780.512 13.0252L780.538 12.5H780.013V13ZM768 13H767.5V13.5H768V13ZM768 11V10.5H767.5V11H768ZM780.32 11V11.5H780.707L780.804 11.1257L780.32 11ZM811.68 11L811.196 11.1257L811.293 11.5H811.68V11ZM824 11H824.5V10.5H824V11ZM824 13V13.5H824.5V13H824ZM811.987 13V12.5H811.462L811.488 13.0252L811.987 13ZM713 11H713.5V10.5H713V11ZM713 13V13.5H713.5V13H713ZM693.685 13V12.5L693.459 13.4462L693.685 13ZM676.315 13L676.541 13.4462L676.315 12.5V13ZM657 13H656.5V13.5H657V13ZM657 11V10.5H656.5V11H657ZM713 36H713.5V35.5H713V36ZM713 38V38.5H713.5V38H713ZM657 38H656.5V38.5H657V38ZM657 36V35.5H656.5V36H657ZM424 34V33.5H423.5V34H424ZM424 36H423.5V36.5H424V36ZM441.315 36L441.541 36.4462L441.315 35.5V36ZM423 59V58.5H422.5V59H423ZM423 61H422.5V61.5H423V61ZM479 61V61.5H479.5V61H479ZM479 59H479.5V58.5H479V59ZM458.685 36V35.5L458.459 36.4462L458.685 36ZM480 36V36.5H480.5V36H480ZM480 34H480.5V33.5H480V34ZM245 59H245.5V58.5H245V59ZM189 59V58.5H188.5V59H189ZM245 61V61.5H245.5V61H245ZM189 61H188.5V61.5H189V61ZM38.3945 138.5V138H37.8839L37.8946 138.51L38.3945 138.5ZM889 138.5V139H889.5V138.5H889ZM889 85H889.5V84.5H889V85ZM224.281 85L224.123 84.5257L224.281 85.5V85ZM211.719 85V85.5L211.877 84.5257L211.719 85ZM117.987 85L117.488 85.0251L117.512 85.5H117.987V85ZM86.0126 85V85.5H86.488L86.5119 85.0251L86.0126 85ZM1 85V84.5H0.500005V85H1ZM1 138.5H0.500005V139H1V138.5ZM19.5117 138.5L20.0093 138.549L20.0633 138H19.5117V138.5ZM19.3887 141.539L19.8886 141.531L19.8886 141.529L19.3887 141.539ZM22.0493 158.457L22.3903 158.823L22.5945 158.632L22.5395 158.359L22.0493 158.457ZM19.5851 160.738L19.2461 160.37L19.2461 160.37L19.5851 160.738ZM19.301 161V161.5H19.4964L19.6401 161.368L19.301 161ZM1 161V160.5H0.500005V161H1ZM1 187.348L1.49778 187.395L1.5 187.371V187.348H1ZM0.911398 189.222L1.4114 189.229V189.222H0.911398ZM1 191.697H1.5V191.676L1.49823 191.655L1 191.697ZM1 214.5H0.500005V215H1V214.5ZM22.8236 214.5L22.8779 214.003L22.8509 214H22.8236V214.5ZM26.5038 214.681L26.5007 214.181L26.5 214.181L26.5038 214.681ZM29.9526 214.5V214H29.9273L29.9022 214.003L29.9526 214.5ZM34.1458 214.5L34.636 214.401L34.5553 214H34.1458V214.5ZM36.759 231.44L36.259 231.439L36.259 231.442L36.759 231.44ZM18.85 237.603L18.8345 237.104L18.2876 237.121L18.3537 237.664L18.85 237.603ZM13.4991 227.853L13.8338 228.225L13.8456 228.214L13.8567 228.203L13.4991 227.853ZM13.4579 227.889L13.7789 228.272L13.779 228.272L13.4579 227.889ZM13.4091 227.931L13.0682 227.565L13.0635 227.57L13.4091 227.931ZM12.6619 228.879L13.08 229.154L13.0827 229.149L12.6619 228.879ZM11.3761 234.103L10.8761 234.098V234.103H11.3761ZM39.0016 230.871L38.5016 230.862V230.871H39.0016ZM36.2468 214.5V214H35.6279L35.7579 214.605L36.2468 214.5ZM889 214.5V215H889.5V214.5H889ZM889 161H889.5V160.5H889V161ZM32.1246 161L31.7196 160.707L31.1457 161.5H32.1246V161ZM38.4036 139.465L37.9036 139.464L37.9036 139.469L38.4036 139.465ZM38.3042 136.5L37.8054 136.535L37.8378 137H38.3042V136.5ZM887 136.5V137H887.5V136.5H887ZM887 111H887.5V110.5H887V111ZM3 111V110.5H2.5V111H3ZM3 136.5H2.5V137H3V136.5ZM19.7799 136.5V137H20.2024L20.2729 136.583L19.7799 136.5ZM30.4513 120.526L30.4661 120.026L30.463 120.026L30.4513 120.526ZM25.0754 136.5L24.6313 136.27L24.2542 137H25.0754V136.5ZM31.6769 130.628L31.7202 131.127L31.7202 131.127L31.6769 130.628ZM35.8906 136.5V137H36.398L36.3906 136.493L35.8906 136.5ZM24.1754 138.5V138H23.8337L23.7095 138.318L24.1754 138.5ZM35.824 138.5L36.3214 138.551L36.3775 138H35.824V138.5ZM23.4251 157.164L22.9334 157.254L23.1003 158.161L23.7692 157.527L23.4251 157.164ZM22.2885 148.974L21.7886 148.966L21.7884 148.977L21.7887 148.988L22.2885 148.974ZM3 163V162.5H2.5V163H3ZM17.1412 163L17.4821 163.366L18.4109 162.5H17.1412V163ZM3 180.16H2.5L3.45406 180.369L3 180.16ZM3 212.5H2.5V213H3V212.5ZM3 199.839L3.46114 199.645L2.5 199.839H3ZM15.1872 212.5V213L15.3889 212.042L15.1872 212.5ZM21.9474 212.5L21.8483 212.99L21.8974 213H21.9474V212.5ZM7.13279 187V186.5H6.78597L6.66447 186.825L7.13279 187ZM18.47 187L18.8606 187.312L19.5099 186.5H18.47V187ZM26.2053 206.948L26.0211 207.413L26.5097 206.552L26.2053 206.948ZM28.4173 187.929L28.9054 187.821L28.7972 187.334L28.3101 187.441L28.4173 187.929ZM33.62 211.957L33.7708 212.434L34.2006 212.298L34.1097 211.856L33.62 211.957ZM31.5025 212.5V213H31.5522L31.601 212.99L31.5025 212.5ZM887 212.5V213H887.5V212.5H887ZM38.0313 212.5L37.8317 212.042L38.0313 213V212.5ZM887 187H887.5V186.5H887V187ZM45.5704 187V186.5H44.6084L45.1612 187.287L45.5704 187ZM887 185V185.5H887.5V185H887ZM43.9086 185L43.5516 185.35L43.6986 185.5H43.9086V185ZM887 163H887.5V162.5H887V163ZM30.5639 163V162.5H30.3306L30.1808 162.679L30.5639 163ZM25.637 167.993L25.3057 167.619L25.0861 167.813L25.1485 168.1L25.637 167.993ZM28.5378 180.817L28.0506 180.93L28.1628 181.416L28.6493 181.305L28.5378 180.817ZM32.6039 180.359L32.6073 179.859L32.5993 179.859L32.6039 180.359ZM26.9525 181.275L27.1052 181.751L27.5394 181.612L27.4407 181.167L26.9525 181.275ZM20.373 185V185.5H20.5632L20.7053 185.374L20.373 185ZM24.2919 169.152L24.7807 169.046L24.6054 168.233L23.9695 168.77L24.2919 169.152ZM19.9004 172.69L20.2096 173.083L20.2096 173.083L19.9004 172.69ZM8.01712 185L7.57223 184.772L7.19873 185.5H8.01712V185ZM86.114 87L86.6083 86.9243L86.5433 86.5H86.114V87ZM3 87V86.5H2.5V87H3ZM3 109H2.5V109.5H3V109ZM887 109V109.5H887.5V109H887ZM887 87H887.5V86.5H887V87ZM117.886 87V86.5H117.457L117.392 86.9243L117.886 87ZM446.091 244.188L445.61 244.326L445.714 244.688H446.091V244.188ZM445.588 243.088L445.172 243.365L445.174 243.369L445.588 243.088ZM449.841 244.188V244.688H450.415L450.336 244.119L449.841 244.188ZM449.031 241.818L448.599 242.07L448.6 242.071L449.031 241.818ZM447.403 239.952L447.093 240.343L447.094 240.345L447.403 239.952ZM445.136 238.741L444.975 239.215L444.978 239.216L445.136 238.741ZM439.162 238.912L438.973 238.449L438.973 238.449L439.162 238.912ZM436.562 240.676L436.202 240.329L436.202 240.329L436.562 240.676ZM434.824 243.506L434.355 243.331L434.355 243.332L434.824 243.506ZM435.241 252.062L434.797 252.291L434.798 252.293L435.241 252.062ZM438.139 255.156L437.886 255.587L437.888 255.588L438.139 255.156ZM446.355 255.352L446.586 255.796L446.588 255.795L446.355 255.352ZM449.031 252.812L449.462 253.067L449.462 253.066L449.031 252.812ZM450.003 246.659H450.503V246.159H450.003V246.659ZM442.699 246.659V246.159H442.199V246.659H442.699ZM442.699 249.438H442.199V249.938H442.699V249.438ZM446.448 249.438L446.948 249.448L446.959 248.938H446.448V249.438ZM445.972 251.261L445.54 251.009L445.538 251.013L445.972 251.261ZM444.608 252.531L444.832 252.978L444.833 252.978L444.608 252.531ZM440.074 252.31L439.797 252.726L439.8 252.728L440.074 252.31ZM438.506 250.358L438.047 250.557L438.047 250.557L438.506 250.358ZM438.514 244.17L438.971 244.374L438.971 244.373L438.514 244.17ZM440.082 242.236L439.808 241.818L439.807 241.819L440.082 242.236ZM443.739 241.75L443.593 242.228L443.595 242.229L443.739 241.75ZM444.795 242.27L444.498 242.672L444.506 242.678L444.795 242.27ZM453.363 256L452.917 255.774L452.55 256.5H453.363V256ZM460.599 241.682L461.045 241.907L461.099 241.801V241.682H460.599ZM457.173 256V256.5H457.481L457.619 256.225L457.173 256ZM464.417 241.605L464.864 241.83L464.917 241.724V241.605H464.417ZM464.417 238.545H464.917V238.045H464.417V238.545ZM452.17 238.545V238.045H451.67V238.545H452.17ZM452.17 241.562H451.67V242.062H452.17V241.562ZM460.599 241.562H461.099V241.062H460.599V241.562ZM87.5171 256H87.0171V256.5H87.5171V256ZM87.5171 238.545V238.045H87.0171V238.545H87.5171ZM98.2898 239.594L98.0483 240.032L98.0498 240.032L98.2898 239.594ZM101.213 242.585L100.77 242.817L100.771 242.819L101.213 242.585ZM101.213 251.943L100.771 251.71L100.77 251.712L101.213 251.943ZM98.2727 254.952L98.0329 254.513L98.0321 254.513L98.2727 254.952ZM91.2074 252.838H90.7074V253.338H91.2074V252.838ZM96.304 252.259L96.5343 252.702L96.5356 252.702L96.304 252.259ZM97.9915 250.443L97.5376 250.233L97.537 250.235L97.9915 250.443ZM97.9915 244.094L97.5369 244.302L97.5382 244.305L97.9915 244.094ZM96.3125 242.287L96.5429 241.843L96.5429 241.843L96.3125 242.287ZM91.2074 241.707V241.207H90.7074V241.707H91.2074ZM112.802 241.682L113.248 241.907L113.302 241.801V241.682H112.802ZM105.566 256L105.12 255.774L104.753 256.5H105.566V256ZM112.802 241.562H113.302V241.062H112.802V241.562ZM104.373 241.562H103.873V242.062H104.373V241.562ZM104.373 238.545V238.045H103.873V238.545H104.373ZM116.62 238.545H117.12V238.045H116.62V238.545ZM116.62 241.605L117.067 241.83L117.12 241.724V241.605H116.62ZM109.376 256V256.5H109.684L109.822 256.225L109.376 256ZM320.517 238.545V238.045H320.017V238.545H320.517ZM320.517 256H320.017V256.5H320.517V256ZM332.074 238.545H332.574V238.045H332.074V238.545ZM332.074 241.588V242.088H332.574V241.588H332.074ZM324.207 241.588V241.088H323.707V241.588H324.207ZM324.207 245.747H323.707V246.247H324.207V245.747ZM331.307 245.747H331.807V245.247H331.307V245.747ZM331.307 248.79V249.29H331.807V248.79H331.307ZM324.207 248.79V248.29H323.707V248.79H324.207ZM324.207 256V256.5H324.707V256H324.207ZM342.38 241.682L342.826 241.907L342.88 241.801V241.682H342.38ZM335.144 256L334.698 255.774L334.331 256.5H335.144V256ZM342.38 241.562H342.88V241.062H342.38V241.562ZM333.951 241.562H333.451V242.062H333.951V241.562ZM333.951 238.545V238.045H333.451V238.545H333.951ZM346.198 238.545H346.698V238.045H346.198V238.545ZM346.198 241.605L346.645 241.83L346.698 241.724V241.605H346.198ZM338.954 256V256.5H339.262L339.4 256.225L338.954 256ZM549.571 256L549.098 255.837L548.869 256.5H549.571V256ZM553.526 256V256.5H553.889L554.001 256.155L553.526 256ZM555.597 238.545V238.045H555.24L555.124 238.382L555.597 238.545ZM560.352 238.545L560.825 238.383L560.709 238.045H560.352V238.545ZM566.369 256V256.5H567.071L566.842 255.837L566.369 256ZM562.415 256L561.939 256.154L562.051 256.5H562.415V256ZM561.122 252.02L561.598 251.865L561.486 251.52H561.122V252.02ZM554.82 252.02V251.52H554.457L554.345 251.865L554.82 252.02ZM560.187 249.139V249.639H560.875L560.663 248.985L560.187 249.139ZM558.043 242.534L558.518 242.38L558.406 242.034H558.043V242.534ZM555.758 249.139L555.282 248.985L555.069 249.639H555.758V249.139ZM557.906 242.534V242.034H557.543L557.431 242.379L557.906 242.534ZM576.294 241.682L576.74 241.907L576.794 241.801V241.682H576.294ZM569.058 256L568.612 255.774L568.245 256.5H569.058V256ZM576.294 241.562H576.794V241.062H576.294V241.562ZM567.865 241.562H567.365V242.062H567.865V241.562ZM567.865 238.545V238.045H567.365V238.545H567.865ZM580.112 238.545H580.612V238.045H580.112V238.545ZM580.112 241.605L580.559 241.83L580.612 241.724V241.605H580.112ZM572.868 256V256.5H573.176L573.315 256.225L572.868 256ZM204.517 256H204.017V256.5H204.517V256ZM204.517 238.545V238.045H204.017V238.545H204.517ZM216.312 256V256.5H216.812V256H216.312ZM216.312 252.957H216.812V252.457H216.312V252.957ZM208.207 252.957H207.707V253.457H208.207V252.957ZM208.207 248.79V248.29H207.707V248.79H208.207ZM215.673 248.79V249.29H216.173V248.79H215.673ZM215.673 245.747H216.173V245.247H215.673V245.747ZM208.207 245.747H207.707V246.247H208.207V245.747ZM208.207 241.588V241.088H207.707V241.588H208.207ZM216.278 241.588V242.088H216.778V241.588H216.278ZM216.278 238.545H216.778V238.045H216.278V238.545ZM219.8 256L219.354 255.774L218.988 256.5H219.8V256ZM227.036 241.682L227.482 241.907L227.536 241.801V241.682H227.036ZM223.61 256V256.5H223.918L224.057 256.225L223.61 256ZM230.854 241.605L231.301 241.83L231.354 241.724V241.605H230.854ZM230.854 238.545H231.354V238.045H230.854V238.545ZM218.607 238.545V238.045H218.107V238.545H218.607ZM218.607 241.562H218.107V242.062H218.607V241.562ZM227.036 241.562H227.536V241.062H227.036V241.562ZM670.517 238.545V238.045H670.017V238.545H670.517ZM670.517 256H670.017V256.5H670.517V256ZM680.719 239.116L680.922 238.659L680.922 238.659L680.719 239.116ZM682.653 240.702L682.232 240.971L682.233 240.972L682.653 240.702ZM682.892 244.818L683.333 245.053L683.334 245.051L682.892 244.818ZM681.767 246.08L682.05 246.492L682.051 246.491L681.767 246.08ZM680.148 246.77L680.038 246.282L679.648 246.37V246.77H680.148ZM680.148 246.94H679.648V247.419L680.126 247.44L680.148 246.94ZM682.014 247.503L681.758 247.932L681.759 247.933L682.014 247.503ZM683.438 248.96L683.005 249.212L683.006 249.213L683.438 248.96ZM683.293 253.656L682.87 253.389L682.87 253.39L683.293 253.656ZM681.273 255.369L681.06 254.917L681.06 254.917L681.273 255.369ZM674.207 252.983H673.707V253.483H674.207V252.983ZM679.466 252.395L679.786 252.779L679.788 252.777L679.466 252.395ZM679.824 249.531L679.401 249.798L679.401 249.798L679.824 249.531ZM678.827 248.662L678.606 249.11L678.608 249.111L678.827 248.662ZM674.207 248.347V247.847H673.707V248.347H674.207ZM674.207 245.849H673.707V246.349H674.207V245.849ZM678.29 245.585L678.495 246.041L678.498 246.04L678.29 245.585ZM679.227 244.818L678.819 244.53L678.816 244.534L679.227 244.818ZM678.903 242.108L678.575 242.485L678.577 242.487L678.903 242.108ZM674.207 241.528V241.028H673.707V241.528H674.207ZM694.208 241.682L694.654 241.907L694.708 241.801V241.682H694.208ZM686.972 256L686.526 255.774L686.159 256.5H686.972V256ZM694.208 241.562H694.708V241.062H694.208V241.562ZM685.779 241.562H685.279V242.062H685.779V241.562ZM685.779 238.545V238.045H685.279V238.545H685.779ZM698.026 238.545H698.526V238.045H698.026V238.545ZM698.026 241.605L698.473 241.83L698.526 241.724V241.605H698.026ZM690.782 256V256.5H691.09L691.229 256.225L690.782 256ZM795.918 244.656V245.156H796.48L796.414 244.598L795.918 244.656ZM792.185 244.656L791.69 244.726L791.75 245.156H792.185V244.656ZM795.099 241.963L794.659 242.199L794.66 242.202L795.099 241.963ZM793.463 239.977L793.148 240.365L793.15 240.367L793.463 239.977ZM791.153 238.733L790.997 239.208L790.998 239.208L791.153 238.733ZM784.199 239.364L784.446 239.798L784.448 239.797L784.199 239.364ZM781.284 242.415L781.725 242.651L781.725 242.651L781.284 242.415ZM781.267 252.122L780.825 252.355L780.826 252.357L781.267 252.122ZM784.165 255.182L783.915 255.615L783.916 255.615L784.165 255.182ZM791.349 255.736L791.526 256.203L791.528 256.203L791.349 255.736ZM793.651 254.355L793.986 254.726L793.986 254.726L793.651 254.355ZM795.193 252.369L794.749 252.139L794.749 252.14L795.193 252.369ZM795.918 250.051L796.414 250.111L796.481 249.554L795.92 249.551L795.918 250.051ZM792.185 250.034L792.187 249.534L791.768 249.532L791.693 249.944L792.185 250.034ZM791.724 251.278L791.297 251.018L791.294 251.023L791.724 251.278ZM790.906 252.207L791.208 252.606L791.213 252.602L790.906 252.207ZM789.773 252.778L789.626 252.3L789.624 252.301L789.773 252.778ZM786.074 252.327L785.803 252.747L785.803 252.747L786.074 252.327ZM784.506 250.409L784.047 250.609L784.049 250.612L784.506 250.409ZM784.506 244.188L784.964 244.387L784.964 244.386L784.506 244.188ZM786.065 242.244L786.341 242.661L786.344 242.66L786.065 242.244ZM789.815 241.784L789.657 242.258L789.659 242.259L789.815 241.784ZM791.767 243.369L791.329 243.611L791.331 243.614L791.767 243.369ZM801.47 255.599L801.275 256.06L801.278 256.061L801.47 255.599ZM808.467 255.599L808.661 256.061L808.662 256.06L808.467 255.599ZM810.871 253.835L810.476 253.528L810.476 253.528L810.871 253.835ZM811.749 251.304L812.249 251.307L812.249 251.3L811.749 251.304ZM811.229 249.301L810.79 249.541L810.793 249.546L811.229 249.301ZM809.865 247.776L809.573 248.181L809.578 248.185L809.865 247.776ZM807.964 246.991H807.464V247.417L807.884 247.485L807.964 246.991ZM807.964 246.872L807.864 246.382L807.464 246.464V246.872H807.964ZM810.214 245.517L809.827 245.201L809.827 245.201L810.214 245.517ZM811.101 243.003L811.601 243.006L811.601 243L811.101 243.003ZM810.3 240.599L809.899 240.898L809.9 240.899L810.3 240.599ZM808.118 238.92L807.915 239.377L807.916 239.378L808.118 238.92ZM801.82 238.92L802.02 239.378L802.022 239.378L801.82 238.92ZM799.646 240.591L800.046 240.891L800.047 240.889L799.646 240.591ZM799.723 245.517L799.333 245.83L799.334 245.832L799.723 245.517ZM801.99 246.872H802.49V246.463L802.089 246.382L801.99 246.872ZM801.99 246.991L802.069 247.485L802.49 247.418V246.991H801.99ZM800.064 247.776L800.351 248.185L800.354 248.183L800.064 247.776ZM798.7 249.301L798.262 249.061L798.261 249.063L798.7 249.301ZM799.075 253.835L799.47 253.528L799.47 253.528L799.075 253.835ZM806.507 253.213L806.724 253.664L806.728 253.661L806.507 253.213ZM803.439 253.213L803.22 253.663L803.225 253.665L803.439 253.213ZM802.408 252.327L801.987 252.597L801.989 252.6L802.408 252.327ZM802.416 249.676L801.997 249.403L801.996 249.405L802.416 249.676ZM803.464 248.756L803.688 249.203L803.693 249.201L803.464 248.756ZM806.482 248.756L806.251 249.199L806.256 249.202L806.482 248.756ZM807.521 249.676L807.102 249.949L807.104 249.952L807.521 249.676ZM807.53 252.327L807.112 252.052L807.111 252.054L807.53 252.327ZM806.277 245.432L806.508 245.875L806.508 245.875L806.277 245.432ZM803.669 245.432L803.901 244.989L803.901 244.989L803.669 245.432ZM802.774 244.605L803.2 244.344L803.2 244.344L802.774 244.605ZM802.766 242.193L802.341 241.929L802.34 241.931L802.766 242.193ZM803.661 241.384L803.887 241.829L803.892 241.827L803.661 241.384ZM806.286 241.384L806.051 241.825L806.057 241.828L806.286 241.384ZM807.172 242.193L806.747 242.458L806.749 242.461L807.172 242.193ZM807.172 244.605L806.746 244.344L806.746 244.344L807.172 244.605ZM349.886 59L349.392 59.0757L349.457 59.5H349.886V59ZM362 59H362.5V58.5H362V59ZM318.114 59V59.5H318.543L318.608 59.0757L318.114 59ZM306 59V58.5H305.5V59H306ZM306 61H305.5V61.5H306V61ZM318.013 61L318.512 60.9749L318.488 60.5H318.013V61ZM349.987 61V60.5H349.512L349.488 60.9749L349.987 61ZM362 61V61.5H362.5V61H362ZM540 59V58.5H539.5V59H540ZM596 59H596.5V58.5H596V59ZM540 61H539.5V61.5H540V61ZM596 61V61.5H596.5V61H596ZM713 59H713.5V58.5H713V59ZM657 59V58.5H656.5V59H657ZM713 61V61.5H713.5V61H713ZM657 61H656.5V61.5H657V61ZM550.32 36V36.5H550.707L550.804 36.1257L550.32 36ZM538 36V35.5H537.5V36H538ZM581.68 36L581.196 36.1257L581.293 36.5H581.68V36ZM594 36H594.5V35.5H594V36ZM594 38V38.5H594.5V38H594ZM581.987 38V37.5H581.462L581.488 38.0252L581.987 38ZM550.013 38L550.512 38.0252L550.538 37.5H550.013V38ZM538 38H537.5V38.5H538V38ZM822 36H822.5V35.5H822V36ZM766 36V35.5H765.5V36H766ZM822 38V38.5H822.5V38H822ZM766 38H765.5V38.5H766V38ZM766 59V58.5H765.5V59H766ZM822 59H822.5V58.5H822V59ZM766 61H765.5V61.5H766V61ZM822 61V61.5H822.5V61H822ZM30.1222 187.659L30.0949 187.16L29.5003 187.193L29.6352 187.773L30.1222 187.659ZM31.0483 187.659L31.0326 188.159L31.0405 188.159H31.0483V187.659ZM30.5491 189.495L31.0361 189.381L31.0361 189.381L30.5491 189.495ZM35.5334 211.259L35.0452 211.366L35.1777 211.967L35.7383 211.715L35.5334 211.259ZM796 26.5C804.991 26.5 812.5 20.7876 812.5 13.5H811.5C811.5 20.0195 804.682 25.5 796 25.5V26.5ZM779.5 13.5C779.5 20.7876 787.009 26.5 796 26.5V25.5C787.318 25.5 780.5 20.0195 780.5 13.5H779.5ZM779.513 12.9748C779.504 13.1491 779.5 13.3242 779.5 13.5H780.5C780.5 13.3409 780.504 13.1826 780.512 13.0252L779.513 12.9748ZM768 13.5H780.013V12.5H768V13.5ZM767.5 11V13H768.5V11H767.5ZM780.32 10.5H768V11.5H780.32V10.5ZM796 0.5C788.107 0.5 781.393 4.88288 779.836 10.8743L780.804 11.1257C782.212 5.70592 788.412 1.5 796 1.5V0.5ZM812.164 10.8743C810.607 4.88288 803.893 0.5 796 0.5V1.5C803.588 1.5 809.788 5.70592 811.196 11.1257L812.164 10.8743ZM824 10.5H811.68V11.5H824V10.5ZM824.5 13V11H823.5V13H824.5ZM811.987 13.5H824V12.5H811.987V13.5ZM812.5 13.5C812.5 13.3242 812.496 13.1491 812.487 12.9748L811.488 13.0252C811.496 13.1826 811.5 13.3409 811.5 13.5H812.5ZM713 10.5H685V11.5H713V10.5ZM713.5 13V11H712.5V13H713.5ZM693.685 13.5H713V12.5H693.685V13.5ZM701.5 23.5C701.5 18.8594 698.431 14.8409 693.911 12.5538L693.459 13.4462C697.743 15.6131 700.5 19.336 700.5 23.5H701.5ZM685 36.5C693.991 36.5 701.5 30.7876 701.5 23.5H700.5C700.5 30.0195 693.682 35.5 685 35.5V36.5ZM668.5 23.5C668.5 30.7876 676.009 36.5 685 36.5V35.5C676.318 35.5 669.5 30.0195 669.5 23.5H668.5ZM676.089 12.5538C671.569 14.8409 668.5 18.8594 668.5 23.5H669.5C669.5 19.336 672.257 15.6131 676.541 13.4462L676.089 12.5538ZM657 13.5H676.315V12.5H657V13.5ZM656.5 11V13H657.5V11H656.5ZM685 10.5H657V11.5H685V10.5ZM713 35.5H685V36.5H713V35.5ZM713.5 38V36H712.5V38H713.5ZM657 38.5H713V37.5H657V38.5ZM656.5 36V38H657.5V36H656.5ZM685 35.5H657V36.5H685V35.5ZM424 34.5H450V33.5H424V34.5ZM424.5 36V34H423.5V36H424.5ZM441.315 35.5H424V36.5H441.315V35.5ZM434.5 46.5C434.5 42.336 437.257 38.6131 441.541 36.4462L441.089 35.5538C436.569 37.8409 433.5 41.8594 433.5 46.5H434.5ZM450 58.5C441.318 58.5 434.5 53.0195 434.5 46.5H433.5C433.5 53.7876 441.009 59.5 450 59.5V58.5ZM423 59.5H450V58.5H423V59.5ZM423.5 61V59H422.5V61H423.5ZM479 60.5H423V61.5H479V60.5ZM478.5 59V61H479.5V59H478.5ZM450 59.5H479V58.5H450V59.5ZM465.5 46.5C465.5 53.0195 458.682 58.5 450 58.5V59.5C458.991 59.5 466.5 53.7876 466.5 46.5H465.5ZM458.459 36.4462C462.743 38.6131 465.5 42.336 465.5 46.5H466.5C466.5 41.8594 463.431 37.8409 458.911 35.5538L458.459 36.4462ZM480 35.5H458.685V36.5H480V35.5ZM479.5 34V36H480.5V34H479.5ZM450 34.5H480V33.5H450V34.5ZM245 58.5H189V59.5H245V58.5ZM245.5 61V59H244.5V61H245.5ZM218 61.5H245V60.5H218V61.5ZM189 61.5H218V60.5H189V61.5ZM188.5 59V61H189.5V59H188.5ZM38.3945 139H888V138H38.3945V139ZM888 139H889V138H888V139ZM889.5 138.5V137.5H888.5V138.5H889.5ZM889.5 137.5V110H888.5V137.5H889.5ZM889.5 110V86H888.5V110H889.5ZM889.5 86V85H888.5V86H889.5ZM889 84.5H888V85.5H889V84.5ZM888 84.5H224.281V85.5H888V84.5ZM224.44 85.4743C230.286 83.5226 234.5 78.9437 234.5 73.5H233.5C233.5 78.3796 229.705 82.6625 224.123 84.5257L224.44 85.4743ZM234.5 73.5C234.5 66.2124 226.991 60.5 218 60.5V61.5C226.682 61.5 233.5 66.9805 233.5 73.5H234.5ZM218 60.5C209.009 60.5 201.5 66.2124 201.5 73.5H202.5C202.5 66.9805 209.318 61.5 218 61.5V60.5ZM201.5 73.5C201.5 78.9437 205.714 83.5226 211.561 85.4743L211.877 84.5257C206.295 82.6625 202.5 78.3796 202.5 73.5H201.5ZM211.719 84.5H117.987V85.5H211.719V84.5ZM118.487 84.9749C118.132 77.9381 110.777 72.5 102 72.5V73.5C110.468 73.5 117.171 78.7184 117.488 85.0251L118.487 84.9749ZM102 72.5C93.2233 72.5 85.8675 77.9381 85.5132 84.9749L86.5119 85.0251C86.8295 78.7184 93.5323 73.5 102 73.5V72.5ZM86.0126 84.5H2V85.5H86.0126V84.5ZM2 84.5H1V85.5H2V84.5ZM0.500005 85V86H1.5V85H0.500005ZM0.500005 86V110H1.5V86H0.500005ZM0.500005 110V137.5H1.5V110H0.500005ZM0.500005 137.5V138.5H1.5V137.5H0.500005ZM1 139H2V138H1V139ZM2 139H19.5117V138H2V139ZM19.0141 138.451C18.9124 139.486 18.868 140.523 18.8888 141.549L19.8886 141.529C19.8686 140.545 19.9112 139.547 20.0093 138.549L19.0141 138.451ZM18.8887 141.547C18.9365 144.637 20.0113 150.841 21.5591 158.555L22.5395 158.359C20.9856 150.614 19.9346 144.51 19.8886 141.531L18.8887 141.547ZM21.7083 158.091C20.8965 158.848 20.0736 159.607 19.2461 160.37L19.924 161.106C20.7512 160.343 21.5761 159.582 22.3903 158.823L21.7083 158.091ZM19.2461 160.37C19.1515 160.458 19.0568 160.545 18.962 160.632L19.6401 161.368C19.7348 161.28 19.8294 161.193 19.9241 161.106L19.2461 160.37ZM19.301 160.5H2V161.5H19.301V160.5ZM2 160.5H1V161.5H2V160.5ZM0.500005 161V162H1.5V161H0.500005ZM0.500005 162V186H1.5V162H0.500005ZM0.500005 186V187.348H1.5V186H0.500005ZM0.502233 187.3C0.442281 187.933 0.411398 188.574 0.411398 189.222H1.4114C1.4114 188.606 1.44076 187.997 1.49778 187.395L0.502233 187.3ZM0.411446 189.215C0.39998 190.043 0.429787 190.886 0.501779 191.739L1.49823 191.655C1.42894 190.834 1.40035 190.024 1.41135 189.229L0.411446 189.215ZM0.500005 191.697V213.5H1.5V191.697H0.500005ZM0.500005 213.5V214.5H1.5V213.5H0.500005ZM1 215H2V214H1V215ZM2 215H22.8236V214H2V215ZM22.7693 214.997C23.9645 215.128 25.2103 215.191 26.5076 215.181L26.5 214.181C25.2401 214.191 24.0331 214.129 22.8779 214.003L22.7693 214.997ZM26.5069 215.181C27.7238 215.173 28.8893 215.11 30.0031 214.997L29.9022 214.003C28.8209 214.112 27.6871 214.174 26.5007 214.181L26.5069 215.181ZM29.9526 215H34.1458V214H29.9526V215ZM33.6556 214.599C35.2383 222.473 36.2654 228.6 36.259 231.439L37.259 231.441C37.2656 228.48 36.2119 222.242 34.636 214.401L33.6556 214.599ZM36.259 231.442C36.2866 237.009 32.263 240.092 28.0323 240.976C25.9162 241.418 23.7977 241.295 22.1816 240.678C20.5685 240.062 19.5222 238.989 19.3464 237.543L18.3537 237.664C18.5887 239.597 19.9938 240.913 21.8248 241.612C23.6529 242.31 25.9711 242.429 28.2369 241.955C32.7698 241.007 37.2897 237.629 37.259 231.437L36.259 231.442ZM18.8655 238.103C22.6869 237.985 25.8385 235.233 25.8385 231.707H24.8385C24.8385 234.577 22.2402 236.998 18.8345 237.104L18.8655 238.103ZM25.8385 231.707C25.8385 228.107 22.5524 225.276 18.6108 225.276V226.276C22.1203 226.276 24.8385 228.772 24.8385 231.707H25.8385ZM18.6108 225.276C16.4308 225.276 14.4755 226.138 13.1414 227.504L13.8567 228.203C14.9986 227.034 16.6942 226.276 18.6108 226.276V225.276ZM13.1643 227.482C13.1592 227.487 13.1525 227.492 13.1368 227.505L13.779 228.272C13.7915 228.262 13.8128 228.244 13.8338 228.225L13.1643 227.482ZM13.1369 227.505C13.1222 227.518 13.0948 227.54 13.0682 227.565L13.75 228.297C13.7537 228.293 13.7599 228.288 13.7789 228.272L13.1369 227.505ZM13.0635 227.57C12.743 227.876 12.4829 228.233 12.2412 228.609L13.0827 229.149C13.3059 228.802 13.5165 228.52 13.7547 228.292L13.0635 227.57ZM12.2438 228.605C11.4128 229.872 10.9036 231.647 10.8761 234.098L11.876 234.109C11.9021 231.785 12.3841 230.214 13.08 229.154L12.2438 228.605ZM10.8761 234.103C10.8761 236.811 12.7681 239.186 15.421 240.902C18.0892 242.627 21.6276 243.76 25.1608 243.958C28.692 244.157 32.2758 243.424 34.989 241.347C37.7213 239.256 39.5016 235.854 39.5016 230.871H38.5016C38.5016 235.594 36.8286 238.68 34.3812 240.553C31.9145 242.441 28.592 243.149 25.2169 242.96C21.8437 242.77 18.4757 241.686 15.9641 240.062C13.4373 238.428 11.8761 236.318 11.8761 234.103H10.8761ZM39.5015 230.879C39.5228 229.584 39.2432 227.391 38.7589 224.584C38.2723 221.764 37.5718 218.285 36.7356 214.395L35.7579 214.605C36.5929 218.489 37.2902 221.954 37.7735 224.754C38.259 227.569 38.5212 229.674 38.5016 230.862L39.5015 230.879ZM36.2468 215H888V214H36.2468V215ZM888 215H889V214H888V215ZM889.5 214.5V213.5H888.5V214.5H889.5ZM889.5 213.5V186H888.5V213.5H889.5ZM889.5 186V162H888.5V186H889.5ZM889.5 162V161H888.5V162H889.5ZM889 160.5H888V161.5H889V160.5ZM888 160.5H32.1246V161.5H888V160.5ZM32.5297 161.293C36.3599 156 38.9938 149.185 38.9036 139.46L37.9036 139.469C37.9919 148.986 35.4213 155.591 31.7196 160.707L32.5297 161.293ZM38.9036 139.466C38.9043 139.138 38.9011 138.813 38.8944 138.49L37.8946 138.51C37.9012 138.826 37.9042 139.144 37.9036 139.464L38.9036 139.466ZM38.3042 137H887V136H38.3042V137ZM887.5 136.5V111H886.5V136.5H887.5ZM887 110.5H3V111.5H887V110.5ZM2.5 111V136.5H3.5V111H2.5ZM3 137H19.7799V136H3V137ZM30.463 120.026C29.2287 119.997 28 120.527 26.8532 121.41C25.7039 122.294 24.6018 123.559 23.606 125.071C21.6141 128.097 20.0037 132.182 19.2869 136.417L20.2729 136.583C20.9684 132.475 22.5315 128.522 24.4412 125.621C25.3961 124.171 26.4269 123 27.4631 122.202C28.5019 121.403 29.5117 121.004 30.4396 121.026L30.463 120.026ZM38.803 136.465C38.4853 131.905 37.4386 127.872 35.9826 124.949C35.255 123.487 34.4156 122.284 33.4969 121.433C32.578 120.582 31.5521 120.058 30.4661 120.026L30.4365 121.026C31.2078 121.048 32.0136 121.422 32.8172 122.166C33.6209 122.911 34.3948 124.003 35.0875 125.394C36.4723 128.175 37.4947 132.074 37.8054 136.535L38.803 136.465ZM25.5196 136.73C27.3901 133.11 29.8266 131.291 31.7202 131.127L31.6336 130.13C29.2364 130.339 26.5663 132.526 24.6313 136.27L25.5196 136.73ZM31.7202 131.127C32.7096 131.041 33.5818 131.395 34.2327 132.23C34.899 133.085 35.3609 134.482 35.3907 136.507L36.3906 136.493C36.359 134.342 35.8691 132.703 35.0214 131.616C34.1583 130.508 32.9543 130.015 31.6335 130.13L31.7202 131.127ZM25.0754 137H35.8906V136H25.0754V137ZM24.1754 139H35.824V138H24.1754V139ZM35.3266 138.449C34.9974 141.679 33.5294 144.762 31.3348 147.801C29.1393 150.84 26.2384 153.806 23.081 156.801L23.7692 157.527C26.9357 154.523 29.893 151.505 32.1454 148.386C34.3986 145.267 35.9681 142.018 36.3214 138.551L35.3266 138.449ZM23.9168 157.073C23.2579 153.495 22.834 150.634 22.7883 148.96L21.7887 148.988C21.8368 150.75 22.2758 153.683 22.9334 157.254L23.9168 157.073ZM22.7884 148.983C22.8578 144.855 23.5776 141.41 24.6412 138.682L23.7095 138.318C22.5984 141.169 21.8597 144.732 21.7886 148.966L22.7884 148.983ZM3 163.5H17.1412V162.5H3V163.5ZM3.5 180.16V163H2.5V180.16H3.5ZM16.8003 162.634C11.0923 167.955 5.48971 173.566 2.54595 179.95L3.45406 180.369C6.30476 174.187 11.7629 168.697 17.4821 163.366L16.8003 162.634ZM3.5 212.5V199.839H2.5V212.5H3.5ZM15.1872 212H3V213H15.1872V212ZM2.53887 200.032C4.77539 205.368 8.8363 210.247 14.9855 212.958L15.3889 212.042C9.51009 209.451 5.61515 204.785 3.46114 199.645L2.53887 200.032ZM22.0464 212.01C18.5723 211.308 14.656 209.76 11.6159 206.934C8.5897 204.12 6.40455 200.016 6.40455 194.125H5.40455C5.40455 200.296 7.70676 204.665 10.935 207.666C14.1493 210.655 18.2543 212.264 21.8483 212.99L22.0464 212.01ZM6.40455 194.125C6.40455 191.497 6.83878 189.213 7.6011 187.175L6.66447 186.825C5.8583 188.98 5.40455 191.383 5.40455 194.125H6.40455ZM7.13279 187.5H18.47V186.5H7.13279V187.5ZM18.0795 186.688C15.5292 189.878 14.3776 193.833 15.4759 197.639C16.5754 201.448 19.8927 204.983 26.0211 207.413L26.3896 206.483C20.4479 204.128 17.4241 200.783 16.4367 197.361C15.4482 193.936 16.464 190.31 18.8606 187.312L18.0795 186.688ZM26.5097 206.552C21.435 202.659 20.2489 198.504 21.1005 195.195C21.9622 191.846 24.9438 189.203 28.5245 188.418L28.3101 187.441C24.4111 188.297 21.0999 191.184 20.132 194.946C19.1541 198.746 20.6019 203.28 25.901 207.345L26.5097 206.552ZM27.9292 188.038C29.8101 196.5 31.6463 204.846 33.1302 212.058L34.1097 211.856C32.624 204.636 30.7863 196.283 28.9054 187.821L27.9292 188.038ZM33.4691 211.48C32.8188 211.686 32.1311 211.864 31.4039 212.01L31.601 212.99C32.3623 212.837 33.0849 212.651 33.7708 212.434L33.4691 211.48ZM31.5025 212H21.9474V213H31.5025V212ZM887 212H38.0313V213H887V212ZM886.5 187V212.5H887.5V187H886.5ZM45.5704 187.5H887V186.5H45.5704V187.5ZM38.2309 212.958C50.1194 207.782 51.6449 194.781 45.9796 186.713L45.1612 187.287C50.5139 194.911 49.0613 207.152 37.8317 212.042L38.2309 212.958ZM887 184.5H43.9086V185.5H887V184.5ZM886.5 163V185H887.5V163H886.5ZM30.5639 163.5H887V162.5H30.5639V163.5ZM25.9684 168.368C27.7059 166.83 29.3946 165.173 30.9471 163.321L30.1808 162.679C28.6686 164.482 27.0175 166.104 25.3057 167.619L25.9684 168.368ZM29.025 180.705C27.9918 176.225 26.9955 171.879 26.1256 167.887L25.1485 168.1C26.0198 172.099 27.0174 176.45 28.0506 180.93L29.025 180.705ZM32.5993 179.859C31.1609 179.872 29.7691 180.023 28.4263 180.33L28.6493 181.305C29.9146 181.015 31.2342 180.871 32.6085 180.859L32.5993 179.859ZM44.2656 184.65C41.4401 181.768 37.477 179.892 32.6073 179.859L32.6005 180.859C37.2005 180.89 40.9101 182.656 43.5516 185.35L44.2656 184.65ZM26.7999 180.799C24.215 181.627 21.9096 182.964 20.0407 184.626L20.7053 185.374C22.4692 183.805 24.6521 182.537 27.1052 181.751L26.7999 180.799ZM23.8031 169.257C24.6425 173.151 25.5488 177.253 26.4644 181.383L27.4407 181.167C26.5251 177.037 25.6194 172.937 24.7807 169.046L23.8031 169.257ZM20.2096 173.083C21.6636 171.939 23.15 170.769 24.6142 169.534L23.9695 168.77C22.5204 169.992 21.0472 171.151 19.5912 172.297L20.2096 173.083ZM8.46201 185.228C10.9474 180.382 15.3856 176.879 20.2096 173.083L19.5912 172.297C14.8065 176.062 10.1754 179.696 7.57223 184.772L8.46201 185.228ZM20.373 184.5H8.01712V185.5H20.373V184.5ZM85.6198 87.0757C86.6182 93.5977 93.6591 98.5 102 98.5V97.5C93.9673 97.5 87.5069 92.795 86.6083 86.9243L85.6198 87.0757ZM3 87.5H86.114V86.5H3V87.5ZM3.5 109V87H2.5V109H3.5ZM887 108.5H3V109.5H887V108.5ZM886.5 87V109H887.5V87H886.5ZM117.886 87.5H887V86.5H117.886V87.5ZM102 98.5C110.341 98.5 117.382 93.5977 118.38 87.0757L117.392 86.9243C116.493 92.795 110.033 97.5 102 97.5V98.5ZM446.571 244.049C446.439 243.59 446.251 243.174 446.002 242.807L445.174 243.369C445.357 243.638 445.504 243.956 445.61 244.326L446.571 244.049ZM449.841 243.688H446.091V244.688H449.841V243.688ZM448.6 242.071C448.986 242.728 449.235 243.454 449.346 244.256L450.336 244.119C450.208 243.194 449.918 242.34 449.462 241.565L448.6 242.071ZM447.094 240.345C447.71 240.829 448.211 241.403 448.599 242.07L449.463 241.566C449.011 240.79 448.426 240.12 447.712 239.559L447.094 240.345ZM444.978 239.216C445.779 239.483 446.482 239.859 447.093 240.343L447.714 239.56C447.006 238.999 446.198 238.568 445.295 238.267L444.978 239.216ZM442.375 238.807C443.314 238.807 444.18 238.944 444.975 239.215L445.297 238.268C444.388 237.959 443.413 237.807 442.375 237.807V238.807ZM439.351 239.375C440.275 238.998 441.281 238.807 442.375 238.807V237.807C441.162 237.807 440.026 238.019 438.973 238.449L439.351 239.375ZM436.923 241.023C437.619 240.3 438.427 239.752 439.351 239.375L438.973 238.449C437.92 238.879 436.995 239.507 436.202 240.329L436.923 241.023ZM435.292 243.68C435.686 242.624 436.231 241.741 436.923 241.023L436.202 240.329C435.406 241.156 434.791 242.16 434.355 243.331L435.292 243.68ZM434.71 247.29C434.71 245.923 434.908 244.722 435.293 243.679L434.355 243.332C433.922 244.506 433.71 245.827 433.71 247.29H434.71ZM435.686 251.834C435.042 250.578 434.71 249.069 434.71 247.29H433.71C433.71 249.193 434.066 250.865 434.797 252.291L435.686 251.834ZM438.392 254.725C437.239 254.048 436.337 253.088 435.685 251.832L434.798 252.293C435.532 253.707 436.562 254.81 437.886 255.587L438.392 254.725ZM442.452 255.739C440.891 255.739 439.543 255.395 438.391 254.724L437.888 255.588C439.213 256.36 440.74 256.739 442.452 256.739V255.739ZM446.124 254.909C445.069 255.457 443.849 255.739 442.452 255.739V256.739C443.986 256.739 445.368 256.429 446.586 255.796L446.124 254.909ZM448.601 252.558C448.001 253.574 447.177 254.356 446.123 254.91L446.588 255.795C447.805 255.156 448.766 254.244 449.462 253.067L448.601 252.558ZM449.503 248.858C449.503 250.321 449.195 251.548 448.6 252.559L449.462 253.066C450.163 251.873 450.503 250.463 450.503 248.858H449.503ZM449.503 246.659V248.858H450.503V246.659H449.503ZM442.699 247.159H450.003V246.159H442.699V247.159ZM443.199 249.438V246.659H442.199V249.438H443.199ZM446.448 248.938H442.699V249.938H446.448V248.938ZM446.403 251.513C446.755 250.911 446.931 250.217 446.948 249.448L445.948 249.427C445.934 250.053 445.793 250.576 445.54 251.009L446.403 251.513ZM444.833 252.978C445.511 252.635 446.041 252.146 446.405 251.51L445.538 251.013C445.277 251.468 444.898 251.825 444.383 252.085L444.833 252.978ZM442.469 253.474C443.362 253.474 444.155 253.317 444.832 252.978L444.384 252.084C443.879 252.337 443.246 252.474 442.469 252.474V253.474ZM439.8 252.728C440.568 253.232 441.465 253.474 442.469 253.474V252.474C441.632 252.474 440.932 252.274 440.348 251.891L439.8 252.728ZM438.047 250.557C438.449 251.485 439.03 252.216 439.797 252.726L440.35 251.893C439.766 251.505 439.301 250.936 438.964 250.159L438.047 250.557ZM437.452 247.256C437.452 248.52 437.643 249.626 438.047 250.557L438.964 250.159C438.629 249.386 438.452 248.423 438.452 247.256H437.452ZM438.058 243.967C437.646 244.889 437.452 245.991 437.452 247.256H438.452C438.452 246.089 438.632 245.134 438.971 244.374L438.058 243.967ZM439.807 241.819C439.045 242.322 438.465 243.048 438.057 243.968L438.971 244.373C439.314 243.6 439.779 243.036 440.358 242.653L439.807 241.819ZM442.435 241.071C441.456 241.071 440.574 241.316 439.808 241.818L440.356 242.654C440.943 242.27 441.63 242.071 442.435 242.071V241.071ZM443.884 241.272C443.438 241.136 442.953 241.071 442.435 241.071V242.071C442.871 242.071 443.255 242.126 443.593 242.228L443.884 241.272ZM445.093 241.868C444.736 241.604 444.331 241.406 443.882 241.271L443.595 242.229C443.942 242.333 444.241 242.482 444.498 242.672L445.093 241.868ZM446.004 242.811C445.755 242.437 445.448 242.12 445.085 241.862L444.506 242.678C444.768 242.863 444.99 243.092 445.172 243.365L446.004 242.811ZM453.809 256.226L461.045 241.907L460.152 241.456L452.917 255.774L453.809 256.226ZM457.173 255.5H453.363V256.5H457.173V255.5ZM463.97 241.38L456.726 255.775L457.619 256.225L464.864 241.83L463.97 241.38ZM463.917 238.545V241.605H464.917V238.545H463.917ZM452.17 239.045H464.417V238.045H452.17V239.045ZM452.67 241.562V238.545H451.67V241.562H452.67ZM460.599 241.062H452.17V242.062H460.599V241.062ZM461.099 241.682V241.562H460.099V241.682H461.099ZM87.5171 256.5H93.7046V255.5H87.5171V256.5ZM87.0171 238.545V256H88.0171V238.545H87.0171ZM93.7557 238.045H87.5171V239.045H93.7557V238.045ZM98.5313 239.156C97.176 238.408 95.5779 238.045 93.7557 238.045V239.045C95.4448 239.045 96.8694 239.381 98.0483 240.032L98.5313 239.156ZM101.656 242.353C100.929 240.966 99.8849 239.896 98.5298 239.155L98.0498 240.032C99.2288 240.677 100.133 241.602 100.77 242.817L101.656 242.353ZM102.744 247.256C102.744 245.38 102.389 243.74 101.655 242.352L100.771 242.819C101.413 244.033 101.744 245.506 101.744 247.256H102.744ZM101.656 252.176C102.389 250.783 102.744 249.136 102.744 247.256H101.744C101.744 249.011 101.413 250.49 100.771 251.71L101.656 252.176ZM98.5126 255.39C99.8789 254.643 100.929 253.568 101.656 252.174L100.77 251.712C100.133 252.932 99.2234 253.862 98.0329 254.513L98.5126 255.39ZM93.7046 256.5C95.543 256.5 97.1523 256.137 98.5134 255.39L98.0321 254.513C96.8477 255.164 95.4116 255.5 93.7046 255.5V256.5ZM93.5511 252.338H91.2074V253.338H93.5511V252.338ZM96.0736 251.815C95.4186 252.155 94.5852 252.338 93.5511 252.338V253.338C94.6989 253.338 95.7007 253.135 96.5343 252.702L96.0736 251.815ZM97.537 250.235C97.205 250.959 96.7176 251.478 96.0724 251.815L96.5356 252.702C97.3904 252.255 98.0279 251.564 98.446 250.652L97.537 250.235ZM98.0625 247.256C98.0625 248.514 97.8777 249.497 97.5376 250.233L98.4454 250.653C98.8666 249.741 99.0625 248.6 99.0625 247.256H98.0625ZM97.5382 244.305C97.8778 245.035 98.0625 246.01 98.0625 247.256H99.0625C99.0625 245.922 98.8665 244.789 98.4448 243.883L97.5382 244.305ZM96.0821 242.731C96.7201 243.062 97.2047 243.577 97.537 244.302L98.446 243.885C98.0282 242.974 97.3935 242.285 96.5429 241.843L96.0821 242.731ZM93.5597 242.207C94.5937 242.207 95.4272 242.391 96.0822 242.731L96.5429 241.843C95.7092 241.41 94.7074 241.207 93.5597 241.207V242.207ZM91.2074 242.207H93.5597V241.207H91.2074V242.207ZM91.7074 252.838V241.707H90.7074V252.838H91.7074ZM112.356 241.456L105.12 255.774L106.012 256.226L113.248 241.907L112.356 241.456ZM112.302 241.562V241.682H113.302V241.562H112.302ZM104.373 242.062H112.802V241.062H104.373V242.062ZM103.873 238.545V241.562H104.873V238.545H103.873ZM116.62 238.045H104.373V239.045H116.62V238.045ZM117.12 241.605V238.545H116.12V241.605H117.12ZM109.822 256.225L117.067 241.83L116.173 241.38L108.929 255.775L109.822 256.225ZM105.566 256.5H109.376V255.5H105.566V256.5ZM320.017 238.545V256H321.017V238.545H320.017ZM332.074 238.045H320.517V239.045H332.074V238.045ZM332.574 241.588V238.545H331.574V241.588H332.574ZM324.207 242.088H332.074V241.088H324.207V242.088ZM324.707 245.747V241.588H323.707V245.747H324.707ZM331.307 245.247H324.207V246.247H331.307V245.247ZM331.807 248.79V245.747H330.807V248.79H331.807ZM324.207 249.29H331.307V248.29H324.207V249.29ZM324.707 256V248.79H323.707V256H324.707ZM320.517 256.5H324.207V255.5H320.517V256.5ZM341.934 241.456L334.698 255.774L335.59 256.226L342.826 241.907L341.934 241.456ZM341.88 241.562V241.682H342.88V241.562H341.88ZM333.951 242.062H342.38V241.062H333.951V242.062ZM333.451 238.545V241.562H334.451V238.545H333.451ZM346.198 238.045H333.951V239.045H346.198V238.045ZM346.698 241.605V238.545H345.698V241.605H346.698ZM339.4 256.225L346.645 241.83L345.752 241.38L338.507 255.775L339.4 256.225ZM335.144 256.5H338.954V255.5H335.144V256.5ZM549.571 256.5H553.526V255.5H549.571V256.5ZM555.124 238.382L549.098 255.837L550.044 256.163L556.069 238.709L555.124 238.382ZM560.352 238.045H555.597V239.045H560.352V238.045ZM566.842 255.837L560.825 238.383L559.88 238.708L565.897 256.163L566.842 255.837ZM562.415 256.5H566.369V255.5H562.415V256.5ZM560.647 252.174L561.939 256.154L562.89 255.846L561.598 251.865L560.647 252.174ZM554.82 252.52H561.122V251.52H554.82V252.52ZM554.001 256.155L555.296 252.175L554.345 251.865L553.05 255.845L554.001 256.155ZM560.663 248.985L558.518 242.38L557.567 242.688L559.712 249.294L560.663 248.985ZM555.758 249.639H560.187V248.639H555.758V249.639ZM557.431 242.379L555.282 248.985L556.233 249.294L558.382 242.689L557.431 242.379ZM558.043 242.034H557.906V243.034H558.043V242.034ZM575.848 241.456L568.612 255.774L569.504 256.226L576.74 241.907L575.848 241.456ZM575.794 241.562V241.682H576.794V241.562H575.794ZM567.865 242.062H576.294V241.062H567.865V242.062ZM567.365 238.545V241.562H568.365V238.545H567.365ZM580.112 238.045H567.865V239.045H580.112V238.045ZM580.612 241.605V238.545H579.612V241.605H580.612ZM573.315 256.225L580.559 241.83L579.666 241.38L572.421 255.775L573.315 256.225ZM569.058 256.5H572.868V255.5H569.058V256.5ZM205.017 256V238.545H204.017V256H205.017ZM216.312 255.5H204.517V256.5H216.312V255.5ZM215.812 252.957V256H216.812V252.957H215.812ZM208.207 253.457H216.312V252.457H208.207V253.457ZM207.707 248.79V252.957H208.707V248.79H207.707ZM215.673 248.29H208.207V249.29H215.673V248.29ZM215.173 245.747V248.79H216.173V245.747H215.173ZM208.207 246.247H215.673V245.247H208.207V246.247ZM207.707 241.588V245.747H208.707V241.588H207.707ZM216.278 241.088H208.207V242.088H216.278V241.088ZM215.778 238.545V241.588H216.778V238.545H215.778ZM204.517 239.045H216.278V238.045H204.517V239.045ZM220.247 256.226L227.482 241.907L226.59 241.456L219.354 255.774L220.247 256.226ZM223.61 255.5H219.8V256.5H223.61V255.5ZM230.408 241.38L223.163 255.775L224.057 256.225L231.301 241.83L230.408 241.38ZM230.354 238.545V241.605H231.354V238.545H230.354ZM218.607 239.045H230.854V238.045H218.607V239.045ZM219.107 241.562V238.545H218.107V241.562H219.107ZM227.036 241.062H218.607V242.062H227.036V241.062ZM227.536 241.682V241.562H226.536V241.682H227.536ZM670.017 238.545V256H671.017V238.545H670.017ZM677.506 238.045H670.517V239.045H677.506V238.045ZM680.922 238.659C679.981 238.242 678.835 238.045 677.506 238.045V239.045C678.744 239.045 679.741 239.23 680.516 239.574L680.922 238.659ZM683.075 240.433C682.582 239.66 681.854 239.073 680.922 238.659L680.516 239.574C681.3 239.921 681.862 240.391 682.232 240.971L683.075 240.433ZM683.801 243.02C683.801 242.059 683.563 241.19 683.074 240.431L682.233 240.972C682.608 241.554 682.801 242.231 682.801 243.02H683.801ZM683.334 245.051C683.651 244.451 683.801 243.769 683.801 243.02H682.801C682.801 243.634 682.679 244.151 682.45 244.585L683.334 245.051ZM682.051 246.491C682.594 246.116 683.023 245.635 683.333 245.053L682.451 244.583C682.216 245.024 681.895 245.384 681.483 245.668L682.051 246.491ZM680.257 247.258C680.922 247.109 681.521 246.855 682.05 246.492L681.484 245.667C681.069 245.952 680.59 246.158 680.038 246.282L680.257 247.258ZM680.648 246.94V246.77H679.648V246.94H680.648ZM682.271 247.074C681.621 246.685 680.918 246.473 680.169 246.441L680.126 247.44C680.707 247.465 681.248 247.627 681.758 247.932L682.271 247.074ZM683.87 248.709C683.466 248.015 682.932 247.465 682.269 247.073L681.759 247.933C682.267 248.233 682.682 248.656 683.005 249.212L683.87 248.709ZM684.483 251.176C684.483 250.247 684.285 249.417 683.869 248.707L683.006 249.213C683.317 249.742 683.483 250.39 683.483 251.176H684.483ZM683.715 253.924C684.23 253.11 684.483 252.189 684.483 251.176H683.483C683.483 252.015 683.276 252.748 682.87 253.389L683.715 253.924ZM681.486 255.822C682.45 255.367 683.203 254.737 683.716 253.923L682.87 253.39C682.473 254.019 681.879 254.531 681.06 254.917L681.486 255.822ZM677.974 256.5C679.332 256.5 680.509 256.282 681.486 255.822L681.06 254.917C680.252 255.298 679.23 255.5 677.974 255.5V256.5ZM670.517 256.5H677.974V255.5H670.517V256.5ZM677.216 252.483H674.207V253.483H677.216V252.483ZM679.146 252.01C678.808 252.292 678.2 252.483 677.216 252.483V253.483C678.288 253.483 679.181 253.282 679.786 252.779L679.146 252.01ZM679.673 250.81C679.673 251.333 679.494 251.717 679.144 252.013L679.788 252.777C680.381 252.277 680.673 251.605 680.673 250.81H679.673ZM679.401 249.798C679.578 250.079 679.673 250.411 679.673 250.81H680.673C680.673 250.243 680.535 249.722 680.247 249.264L679.401 249.798ZM678.608 249.111C678.965 249.285 679.223 249.515 679.401 249.798L680.247 249.265C679.959 248.809 679.552 248.459 679.046 248.212L678.608 249.111ZM677.301 248.847C677.834 248.847 678.263 248.941 678.606 249.11L679.048 248.214C678.538 247.962 677.95 247.847 677.301 247.847V248.847ZM674.207 248.847H677.301V247.847H674.207V248.847ZM674.707 252.983V248.347H673.707V252.983H674.707ZM676.943 245.349H674.207V246.349H676.943V245.349ZM678.085 245.129C677.768 245.272 677.391 245.349 676.943 245.349V246.349C677.507 246.349 678.028 246.251 678.495 246.041L678.085 245.129ZM678.816 244.534C678.644 244.783 678.405 244.983 678.082 245.13L678.498 246.04C678.97 245.824 679.356 245.513 679.639 245.102L678.816 244.534ZM679.077 243.634C679.077 244.005 678.984 244.296 678.819 244.53L679.636 245.107C679.936 244.681 680.077 244.182 680.077 243.634H679.077ZM678.577 242.487C678.908 242.771 679.077 243.138 679.077 243.634H680.077C680.077 242.868 679.797 242.217 679.23 241.729L678.577 242.487ZM677.011 242.028C677.756 242.028 678.253 242.204 678.575 242.485L679.232 241.731C678.668 241.239 677.903 241.028 677.011 241.028V242.028ZM674.207 242.028H677.011V241.028H674.207V242.028ZM674.707 245.849V241.528H673.707V245.849H674.707ZM693.762 241.456L686.526 255.774L687.419 256.226L694.654 241.907L693.762 241.456ZM693.708 241.562V241.682H694.708V241.562H693.708ZM685.779 242.062H694.208V241.062H685.779V242.062ZM685.279 238.545V241.562H686.279V238.545H685.279ZM698.026 238.045H685.779V239.045H698.026V238.045ZM698.526 241.605V238.545H697.526V241.605H698.526ZM691.229 256.225L698.473 241.83L697.58 241.38L690.335 255.775L691.229 256.225ZM686.972 256.5H690.782V255.5H686.972V256.5ZM795.918 244.156H792.185V245.156H795.918V244.156ZM794.66 242.202C795.052 242.923 795.308 243.758 795.421 244.715L796.414 244.598C796.288 243.532 795.999 242.572 795.539 241.724L794.66 242.202ZM793.15 240.367C793.766 240.863 794.269 241.472 794.659 242.199L795.54 241.727C795.089 240.886 794.501 240.171 793.777 239.588L793.15 240.367ZM790.998 239.208C791.812 239.474 792.527 239.861 793.148 240.365L793.779 239.589C793.058 239.003 792.233 238.56 791.309 238.258L790.998 239.208ZM788.341 238.807C789.305 238.807 790.189 238.942 790.997 239.208L791.31 238.258C790.39 237.956 789.399 237.807 788.341 237.807V238.807ZM784.448 239.797C785.593 239.14 786.887 238.807 788.341 238.807V237.807C786.727 237.807 785.259 238.178 783.95 238.93L784.448 239.797ZM781.725 242.651C782.4 241.392 783.307 240.447 784.446 239.798L783.951 238.929C782.636 239.678 781.6 240.767 780.843 242.179L781.725 242.651ZM780.71 247.273C780.71 245.431 781.057 243.897 781.725 242.651L780.843 242.179C780.08 243.603 779.71 245.308 779.71 247.273H780.71ZM781.709 251.889C781.051 250.642 780.71 249.11 780.71 247.273H779.71C779.71 249.231 780.074 250.932 780.825 252.355L781.709 251.889ZM784.415 254.749C783.28 254.094 782.378 253.146 781.708 251.887L780.826 252.357C781.577 253.769 782.606 254.86 783.915 255.615L784.415 254.749ZM788.341 255.739C786.862 255.739 785.558 255.405 784.414 254.748L783.916 255.615C785.226 256.368 786.706 256.739 788.341 256.739V255.739ZM791.173 255.268C790.352 255.578 789.41 255.739 788.341 255.739V256.739C789.51 256.739 790.574 256.564 791.526 256.203L791.173 255.268ZM793.316 253.984C792.724 254.518 792.011 254.948 791.171 255.269L791.528 256.203C792.472 255.842 793.293 255.351 793.986 254.726L793.316 253.984ZM794.749 252.14C794.397 252.823 793.921 253.437 793.315 253.984L793.986 254.726C794.676 254.103 795.228 253.393 795.638 252.598L794.749 252.14ZM795.421 249.991C795.332 250.731 795.109 251.446 794.749 252.139L795.637 252.6C796.05 251.804 796.31 250.974 796.414 250.111L795.421 249.991ZM792.182 250.534L795.915 250.551L795.92 249.551L792.187 249.534L792.182 250.534ZM792.151 251.539C792.408 251.117 792.581 250.643 792.677 250.124L791.693 249.944C791.617 250.357 791.484 250.712 791.297 251.018L792.151 251.539ZM791.213 252.602C791.593 252.308 791.907 251.95 792.154 251.534L791.294 251.023C791.11 251.334 790.879 251.596 790.6 251.812L791.213 252.602ZM789.919 253.256C790.397 253.11 790.829 252.894 791.208 252.606L790.604 251.809C790.325 252.021 790 252.186 789.626 252.3L789.919 253.256ZM788.401 253.474C788.939 253.474 789.447 253.403 789.921 253.256L789.624 252.301C789.257 252.415 788.851 252.474 788.401 252.474V253.474ZM785.803 252.747C786.563 253.236 787.434 253.474 788.401 253.474V252.474C787.606 252.474 786.926 252.281 786.345 251.906L785.803 252.747ZM784.049 250.612C784.457 251.533 785.038 252.254 785.803 252.747L786.345 251.906C785.769 251.535 785.305 250.979 784.963 250.207L784.049 250.612ZM783.452 247.273C783.452 248.563 783.643 249.682 784.047 250.609L784.964 250.209C784.63 249.443 784.452 248.471 784.452 247.273H783.452ZM784.047 243.988C783.643 244.914 783.452 246.014 783.452 247.273H784.452C784.452 246.111 784.629 245.155 784.964 244.387L784.047 243.988ZM785.79 241.827C785.026 242.332 784.449 243.062 784.047 243.989L784.964 244.386C785.301 243.609 785.764 243.043 786.341 242.661L785.79 241.827ZM788.426 241.071C787.436 241.071 786.55 241.318 785.787 241.829L786.344 242.66C786.922 242.273 787.609 242.071 788.426 242.071V241.071ZM789.973 241.31C789.491 241.149 788.974 241.071 788.426 241.071V242.071C788.878 242.071 789.288 242.135 789.657 242.258L789.973 241.31ZM791.272 242.009C790.892 241.701 790.457 241.469 789.972 241.309L789.659 242.259C790.037 242.383 790.364 242.56 790.643 242.786L791.272 242.009ZM792.205 243.128C791.964 242.692 791.653 242.318 791.272 242.009L790.643 242.786C790.921 243.012 791.149 243.285 791.329 243.611L792.205 243.128ZM792.68 244.586C792.604 244.05 792.448 243.561 792.203 243.125L791.331 243.614C791.507 243.928 791.629 244.296 791.69 244.726L792.68 244.586ZM804.973 255.739C803.715 255.739 802.614 255.534 801.662 255.138L801.278 256.061C802.372 256.517 803.606 256.739 804.973 256.739V255.739ZM808.274 255.138C807.329 255.534 806.232 255.739 804.973 255.739V256.739C806.339 256.739 807.572 256.517 808.661 256.061L808.274 255.138ZM810.476 253.528C809.958 254.194 809.231 254.734 808.273 255.139L808.662 256.06C809.749 255.601 810.625 254.965 811.265 254.142L810.476 253.528ZM811.249 251.301C811.244 252.134 810.988 252.871 810.476 253.528L811.265 254.142C811.913 253.311 812.242 252.36 812.249 251.307L811.249 251.301ZM810.793 249.546C811.09 250.077 811.244 250.661 811.249 251.308L812.249 251.3C812.242 250.492 812.049 249.741 811.665 249.057L810.793 249.546ZM809.578 248.185C810.089 248.544 810.492 248.995 810.79 249.541L811.667 249.061C811.295 248.38 810.789 247.814 810.153 247.367L809.578 248.185ZM807.884 247.485C808.508 247.586 809.068 247.818 809.573 248.181L810.157 247.37C809.525 246.915 808.819 246.624 808.045 246.498L807.884 247.485ZM807.464 246.872V246.991H808.464V246.872H807.464ZM809.827 245.201C809.316 245.827 808.667 246.218 807.864 246.382L808.065 247.362C809.091 247.152 809.943 246.639 810.602 245.833L809.827 245.201ZM810.601 243C810.596 243.851 810.337 244.577 809.827 245.201L810.602 245.834C811.262 245.025 811.594 244.076 811.601 243.006L810.601 243ZM809.9 240.899C810.363 241.517 810.596 242.213 810.601 243.006L811.601 243C811.594 241.997 811.294 241.091 810.7 240.299L809.9 240.899ZM807.916 239.378C808.775 239.757 809.429 240.266 809.899 240.898L810.701 240.301C810.114 239.512 809.314 238.902 808.32 238.463L807.916 239.378ZM804.973 238.807C806.091 238.807 807.068 239.001 807.915 239.377L808.321 238.464C807.327 238.022 806.208 237.807 804.973 237.807V238.807ZM802.022 239.378C802.875 239.001 803.855 238.807 804.973 238.807V237.807C803.738 237.807 802.617 238.022 801.618 238.463L802.022 239.378ZM800.047 240.889C800.517 240.258 801.168 239.752 802.02 239.378L801.619 238.463C800.63 238.896 799.832 239.504 799.245 240.292L800.047 240.889ZM799.354 243.003C799.354 242.205 799.585 241.507 800.046 240.891L799.246 240.291C798.651 241.084 798.354 241.994 798.354 243.003H799.354ZM800.113 245.204C799.607 244.574 799.354 243.847 799.354 243.003H798.354C798.354 244.067 798.68 245.017 799.333 245.83L800.113 245.204ZM802.089 246.382C801.267 246.217 800.615 245.825 800.112 245.202L799.334 245.832C799.99 246.641 800.849 247.153 801.891 247.362L802.089 246.382ZM802.49 246.991V246.872H801.49V246.991H802.49ZM800.354 248.183C800.864 247.819 801.433 247.587 802.069 247.485L801.911 246.498C801.126 246.623 800.412 246.914 799.774 247.368L800.354 248.183ZM799.139 249.541C799.437 248.995 799.84 248.544 800.351 248.185L799.776 247.367C799.14 247.814 798.634 248.38 798.262 249.061L799.139 249.541ZM798.706 251.304C798.706 250.655 798.852 250.07 799.14 249.539L798.261 249.063C797.889 249.748 797.706 250.498 797.706 251.304H798.706ZM799.47 253.528C798.959 252.872 798.706 252.136 798.706 251.304H797.706C797.706 252.358 798.033 253.31 798.681 254.142L799.47 253.528ZM801.666 255.139C800.713 254.735 799.989 254.195 799.47 253.528L798.681 254.142C799.321 254.965 800.193 255.6 801.275 256.06L801.666 255.139ZM804.973 254.028C805.618 254.028 806.206 253.912 806.724 253.664L806.291 252.762C805.933 252.934 805.498 253.028 804.973 253.028V254.028ZM803.225 253.665C803.746 253.912 804.333 254.028 804.973 254.028V253.028C804.454 253.028 804.018 252.935 803.653 252.761L803.225 253.665ZM801.989 252.6C802.287 253.058 802.704 253.411 803.22 253.663L803.658 252.764C803.288 252.583 803.017 252.345 802.827 252.054L801.989 252.6ZM801.541 251.014C801.541 251.595 801.686 252.128 801.987 252.597L802.828 252.057C802.641 251.764 802.541 251.422 802.541 251.014H801.541ZM801.996 249.405C801.689 249.88 801.541 250.422 801.541 251.014H802.541C802.541 250.595 802.643 250.245 802.836 249.948L801.996 249.405ZM803.241 248.308C802.723 248.567 802.304 248.932 801.997 249.403L802.835 249.949C803.039 249.636 803.319 249.387 803.688 249.203L803.241 248.308ZM804.973 247.915C804.342 247.915 803.759 248.043 803.236 248.311L803.693 249.201C804.057 249.014 804.479 248.915 804.973 248.915V247.915ZM806.712 248.312C806.193 248.042 805.609 247.915 804.973 247.915V248.915C805.473 248.915 805.895 249.014 806.251 249.199L806.712 248.312ZM807.94 249.403C807.634 248.934 807.219 248.569 806.707 248.31L806.256 249.202C806.619 249.386 806.897 249.634 807.102 249.949L807.94 249.403ZM808.405 251.014C808.405 250.42 808.253 249.876 807.938 249.4L807.104 249.952C807.301 250.249 807.405 250.597 807.405 251.014H808.405ZM807.948 252.601C808.256 252.132 808.405 251.597 808.405 251.014H807.405C807.405 251.42 807.304 251.76 807.112 252.052L807.948 252.601ZM806.728 253.661C807.239 253.41 807.651 253.056 807.949 252.6L807.111 252.054C806.92 252.347 806.65 252.585 806.286 252.765L806.728 253.661ZM804.973 246.23C805.531 246.23 806.047 246.116 806.508 245.875L806.045 244.989C805.746 245.145 805.392 245.23 804.973 245.23V246.23ZM803.438 245.875C803.899 246.116 804.415 246.23 804.973 246.23V245.23C804.554 245.23 804.2 245.145 803.901 244.989L803.438 245.875ZM802.348 244.866C802.613 245.299 802.98 245.636 803.438 245.875L803.901 244.989C803.597 244.83 803.367 244.616 803.2 244.344L802.348 244.866ZM801.95 243.386C801.95 243.928 802.078 244.427 802.348 244.866L803.2 244.344C803.038 244.079 802.95 243.765 802.95 243.386H801.95ZM802.34 241.931C802.075 242.361 801.95 242.852 801.95 243.386H802.95C802.95 243.012 803.036 242.707 803.191 242.456L802.34 241.931ZM803.434 240.938C802.976 241.17 802.608 241.501 802.341 241.929L803.19 242.458C803.355 242.192 803.584 241.983 803.887 241.829L803.434 240.938ZM804.973 240.585C804.41 240.585 803.891 240.699 803.429 240.94L803.892 241.827C804.191 241.67 804.547 241.585 804.973 241.585V240.585ZM806.52 240.942C806.061 240.698 805.54 240.585 804.973 240.585V241.585C805.406 241.585 805.76 241.671 806.051 241.825L806.52 240.942ZM807.596 241.929C807.331 241.503 806.967 241.172 806.514 240.939L806.057 241.828C806.354 241.981 806.581 242.19 806.747 242.458L807.596 241.929ZM807.996 243.386C807.996 242.849 807.867 242.356 807.594 241.926L806.749 242.461C806.908 242.712 806.996 243.014 806.996 243.386H807.996ZM807.598 244.866C807.868 244.427 807.996 243.928 807.996 243.386H806.996C806.996 243.765 806.908 244.079 806.746 244.344L807.598 244.866ZM806.508 245.875C806.966 245.636 807.333 245.299 807.598 244.866L806.746 244.344C806.579 244.616 806.349 244.83 806.045 244.989L806.508 245.875ZM349.886 59.5H362V58.5H349.886V59.5ZM334 48.5C342.033 48.5 348.493 53.205 349.392 59.0757L350.38 58.9243C349.382 52.4023 342.341 47.5 334 47.5V48.5ZM318.608 59.0757C319.507 53.205 325.967 48.5 334 48.5V47.5C325.659 47.5 318.618 52.4023 317.62 58.9243L318.608 59.0757ZM306 59.5H318.114V58.5H306V59.5ZM306.5 61V59H305.5V61H306.5ZM318.013 60.5H306V61.5H318.013V60.5ZM334 72.5C325.532 72.5 318.829 67.2816 318.512 60.9749L317.513 61.0251C317.868 68.0619 325.223 73.5 334 73.5V72.5ZM349.488 60.9749C349.171 67.2816 342.468 72.5 334 72.5V73.5C342.777 73.5 350.132 68.0619 350.487 61.0251L349.488 60.9749ZM362 60.5H349.987V61.5H362V60.5ZM361.5 59V61H362.5V59H361.5ZM540 59.5H596V58.5H540V59.5ZM540.5 61V59H539.5V61H540.5ZM596 60.5H540V61.5H596V60.5ZM595.5 59V61H596.5V59H595.5ZM713 58.5H657V59.5H713V58.5ZM713.5 61V59H712.5V61H713.5ZM657 61.5H713V60.5H657V61.5ZM656.5 59V61H657.5V59H656.5ZM550.32 35.5H538V36.5H550.32V35.5ZM566 25.5C558.107 25.5 551.393 29.8829 549.836 35.8743L550.804 36.1257C552.212 30.7059 558.412 26.5 566 26.5V25.5ZM582.164 35.8743C580.607 29.8829 573.893 25.5 566 25.5V26.5C573.588 26.5 579.788 30.7059 581.196 36.1257L582.164 35.8743ZM594 35.5H581.68V36.5H594V35.5ZM594.5 38V36H593.5V38H594.5ZM581.987 38.5H594V37.5H581.987V38.5ZM582.5 38.5C582.5 38.3242 582.496 38.1491 582.487 37.9748L581.488 38.0252C581.496 38.1826 581.5 38.3409 581.5 38.5H582.5ZM566 51.5C574.991 51.5 582.5 45.7876 582.5 38.5H581.5C581.5 45.0195 574.682 50.5 566 50.5V51.5ZM549.5 38.5C549.5 45.7876 557.009 51.5 566 51.5V50.5C557.318 50.5 550.5 45.0195 550.5 38.5H549.5ZM549.513 37.9748C549.504 38.1491 549.5 38.3242 549.5 38.5H550.5C550.5 38.3409 550.504 38.1826 550.512 38.0252L549.513 37.9748ZM538 38.5H550.013V37.5H538V38.5ZM537.5 36V38H538.5V36H537.5ZM822 35.5H766V36.5H822V35.5ZM822.5 38V36H821.5V38H822.5ZM766 38.5H822V37.5H766V38.5ZM765.5 36V38H766.5V36H765.5ZM766 59.5H822V58.5H766V59.5ZM766.5 61V59H765.5V61H766.5ZM822 60.5H766V61.5H822V60.5ZM821.5 59V61H822.5V59H821.5ZM30.1495 188.159C30.4255 188.144 30.7309 188.15 31.0326 188.159L31.0639 187.16C30.761 187.15 30.4178 187.143 30.0949 187.16L30.1495 188.159ZM31.0361 189.381C30.8938 188.77 30.7515 188.158 30.6092 187.546L29.6352 187.773C29.7775 188.385 29.9198 188.996 30.0621 189.608L31.0361 189.381ZM36.0217 211.151C34.5556 204.51 32.8013 196.969 31.0361 189.381L30.0621 189.608C31.8276 197.197 33.5806 204.732 35.0452 211.366L36.0217 211.151ZM31.0483 188.159C43.0299 188.159 47.5425 205.317 35.3286 210.803L35.7383 211.715C48.9771 205.769 44.0621 187.159 31.0483 187.159V188.159Z" fill="white"/>
</svg>
