<svg width="109" height="124" viewBox="0 0 109 124" fill="none" xmlns="http://www.w3.org/2000/svg">
<rect width="109" height="124" fill="black"/>
<path d="M35.5494 2H96C100.418 2 104 5.58172 104 10V100.772C104 105.19 100.418 108.772 96 108.772H35.5494V2Z" stroke="#7A7A7A" stroke-width="4"/>
<path d="M79.4506 11.5803H19C14.5817 11.5803 11 15.162 11 19.5803V110.352C11 114.77 14.5817 118.352 19 118.352H79.4506V11.5803Z" stroke="white" stroke-width="4"/>
<path d="M50.744 84.68C49.4213 84.68 48.4187 84.36 47.736 83.72C47.0533 83.0373 46.712 82.1627 46.712 81.096C46.712 79.944 47.032 78.8773 47.672 77.896C48.3547 76.872 49.2293 76.0613 50.296 75.464C51.3627 74.8667 52.472 74.568 53.624 74.568C54.136 74.568 54.648 74.632 55.16 74.76C55.7147 74.8453 56.248 74.9947 56.76 75.208V44.104H59.128V75.4C59.128 77.2347 58.7227 78.856 57.912 80.264C57.144 81.6293 56.12 82.7173 54.84 83.528C53.6027 84.296 52.2373 84.68 50.744 84.68ZM63.16 75.656C63.8853 73.992 64.4187 72.392 64.76 70.856C65.1013 69.2773 65.272 67.8267 65.272 66.504C65.272 64.4987 64.9093 62.8133 64.184 61.448C63.5013 60.04 62.6267 58.9307 61.56 58.12C60.4933 57.3093 59.4053 56.8187 58.296 56.648V46.344C58.808 47.3253 59.4053 48.2427 60.088 49.096C60.7707 49.9067 61.4533 50.7173 62.136 51.528C63.1173 52.5947 64.056 53.7467 64.952 54.984C65.848 56.2213 66.5733 57.6507 67.128 59.272C67.7253 60.8933 68.024 62.8133 68.024 65.032C68.024 67.0373 67.7467 68.9147 67.192 70.664C66.68 72.4133 65.8693 74.0773 64.76 75.656H63.16Z" fill="#2477F3"/>
</svg>
