<svg width="173" height="191" viewBox="0 0 173 191" fill="none" xmlns="http://www.w3.org/2000/svg">
<path d="M24.5113 1.00079C20.3791 0.902997 15.5464 9.89725 15.7071 17.9185C15.7444 20.3616 16.5903 25.3165 17.8246 31.5394C10.0406 38.8833 1.00186 46.4201 1.00186 56.309C0.87775 65.3714 6.95385 76.9171 21.3697 76.806C23.5824 76.7921 25.5735 76.5423 27.3423 76.112C28.6603 82.6986 29.5367 87.8971 29.5313 90.2986C29.5778 99.7655 15.9325 100.703 15.2784 95.2611C18.1543 95.1708 20.4423 93.0887 20.4423 90.5137C20.4423 87.8832 18.053 85.7386 15.0881 85.7386C13.4579 85.7386 12.0051 86.391 11.0198 87.4113C10.997 87.4321 10.9703 87.4529 10.9482 87.4737C10.7259 87.6889 10.5386 87.9457 10.3536 88.2372C9.74596 89.1742 9.35155 90.5206 9.33023 92.4432C9.33023 100.369 31.3161 105.471 31.3161 89.8405C31.3504 87.7375 30.3582 82.4001 28.9131 75.6747C44.6005 70.504 40.6594 49.2727 26.2245 49.1727C25.1052 49.1831 24.0263 49.3018 22.9885 49.542C22.1662 45.9349 21.3728 42.4341 20.6799 39.2171C26.1613 34.3094 30.9476 27.9567 30.8402 16.2486C30.857 7.84075 27.7839 1.09865 24.5113 1.00079ZM25.4867 9.13448C27.3567 8.96999 28.8415 10.5524 28.8415 14.0359C28.993 20.0187 24.3948 25.2436 18.9195 30.4983C18.3956 27.6201 18.0522 25.288 18.0149 23.9048C18.1703 14.5586 22.3695 9.40863 25.4867 9.13448ZM19.6093 40.1499C20.2771 43.2836 20.9982 46.5853 21.7268 49.9105C12.1726 53.0088 7.58735 65.1479 21.1322 70.5803C12.8761 64.1734 16.9398 56.5894 22.8926 55.268C24.3895 62.0808 25.8514 68.8035 27.0331 74.6128C25.4288 75.1264 23.5565 75.4248 21.3697 75.4387C15.902 75.4387 4.97569 72.2669 4.97569 60.2562C4.97569 50.1965 12.6256 46.1084 19.6093 40.1499ZM24.2494 55.0507C24.4877 55.0375 24.7459 55.0431 24.9865 55.0507C34.9328 55.0507 38.6843 69.449 28.556 74.0506C27.2958 68.276 25.7677 61.6547 24.2494 55.0507Z" fill="white" stroke="white"/>
<path d="M2 78V53H172V78M2 78H172M2 78V103M172 78V103M2 103H172M2 103V128M172 103V128M2 128V153H172V128M2 128H172" stroke="white" stroke-width="2"/>
<rect x="72" y="102" width="36" height="27" rx="13.5" fill="white"/>
<rect x="62" y="177" width="55" height="2" fill="white"/>
</svg>
