<svg width="173" height="190" viewBox="0 0 173 190" fill="none" xmlns="http://www.w3.org/2000/svg">
<path fill-rule="evenodd" clip-rule="evenodd" d="M15.9789 21.2657C6.57733 21.5083 -0.625006 28.6137 1.70906 39.5085C1.71121 39.5201 1.72298 39.5317 1.72619 39.5432C2.00015 43.2981 4.89393 46.2557 8.44266 46.2557C12.1723 46.2557 15.1945 42.9977 15.1945 38.9771C15.1945 35.4186 12.8497 32.461 9.73865 31.814C8.49938 31.3403 6.6394 30.2658 6.72074 28.5328C6.75926 27.6779 7.68712 26.1182 9.17574 25.3325C10.9854 24.4198 12.8508 23.923 14.7343 24.3389C17.5885 24.905 24.8893 30.5662 25.4565 40.3751C25.7882 47.8154 21.9141 57.8785 18.1268 62.6385C12.0289 70.1597 2.23346 74.8273 3.19234 75.6592C4.0517 76.491 15.6172 70.7836 21.6391 63.6205C28.9881 55.0248 32.6267 47.8616 32.2735 39.1619C32.0702 30.4507 25.8203 21.0231 15.9789 21.2657V21.2657Z" fill="white" stroke="white" stroke-width="0.45574"/>
<path fill-rule="evenodd" clip-rule="evenodd" d="M44.8288 32.0025C44.8288 33.4337 44.267 34.8062 43.2671 35.8182C42.2672 36.8302 40.9111 37.3987 39.497 37.3987C38.083 37.3987 36.7268 36.8302 35.7269 35.8182C34.727 34.8062 34.1653 33.4337 34.1653 32.0025C34.1653 30.5714 34.727 29.1988 35.7269 28.1868C36.7268 27.1748 38.083 26.6063 39.497 26.6063C40.9111 26.6063 42.2672 27.1748 43.2671 28.1868C44.267 29.1988 44.8288 30.5714 44.8288 32.0025V32.0025Z" fill="white" stroke="white" stroke-width="0.455743" stroke-linecap="round" stroke-linejoin="round"/>
<path fill-rule="evenodd" clip-rule="evenodd" d="M44.8288 47.0797C44.8288 48.5109 44.267 49.8835 43.2671 50.8954C42.2672 51.9074 40.9111 52.476 39.497 52.476C38.083 52.476 36.7268 51.9074 35.7269 50.8954C34.727 49.8835 34.1653 48.5109 34.1653 47.0797C34.1653 45.6486 34.727 44.276 35.7269 43.264C36.7268 42.252 38.083 41.6835 39.497 41.6835C40.9111 41.6835 42.2672 42.252 43.2671 43.264C44.267 44.276 44.8288 45.6486 44.8288 47.0797V47.0797Z" fill="white" stroke="white" stroke-width="0.455743" stroke-linecap="round" stroke-linejoin="round"/>
<path d="M1.0001 77V52H172V77M1.0001 77H172M1.0001 77V102M172 77V102M1.0001 102H172M1.0001 102L1 127M172 102V127M1 127L1.0001 152H172V127M1 127H172" stroke="white" stroke-width="2"/>
<rect x="69" y="38" width="36" height="27" rx="13.5" fill="white"/>
<rect x="59" y="26" width="55" height="2" fill="white"/>
</svg>
